<svg xmlns="http://www.w3.org/2000/svg" viewBox="0 0 229.6 219.2"><defs><style>.cls-1{opacity:0.7;}.cls-2{fill:#ee2184;}</style></defs><title>Asset 36</title><g id="Layer_2" data-name="Layer 2"><g id="Layer_1-2" data-name="Layer 1"><g class="cls-1"><path class="cls-2" d="M0,0,.39.4,0,0Z"/><path class="cls-2" d="M.39.4c32,34.36,158,184.54,173.55,167.22C188.33,151.54,40.35,39.56.39.4Z"/><path class="cls-2" d="M54.69,10.88l.39.38-.37-.4Z"/><path class="cls-2" d="M55.07,11.26c32,34.36,158,184.54,173.55,167.22C243,162.4,95,50.42,55.07,11.26Z"/><path class="cls-2" d="M11.44,50.21l.39.38-.37-.4Z"/><path class="cls-2" d="M11.82,50.59c32,34.36,158,184.54,173.55,167.22C199.77,201.74,51.79,89.76,11.82,50.59Z"/></g></g></g></svg>