<svg xmlns="http://www.w3.org/2000/svg" viewBox="0 0 185.76 185.76"><defs><style>.cls-1{fill:#f79d0f;}.cls-1,.cls-3{opacity:0.4;}.cls-2{fill:#f8a31c;}.cls-3{fill:#f96d11;}.cls-4,.cls-5,.cls-6{fill:#f8da14;}.cls-4{opacity:0.5;}.cls-5{opacity:0.6;}.cls-6{opacity:0.35;}</style></defs><title>Asset 33</title><g id="Layer_2" data-name="Layer 2"><g id="Layer_1-2" data-name="Layer 1"><circle class="cls-1" cx="92.88" cy="92.88" r="92.88"/><circle class="cls-2" cx="92.88" cy="92.88" r="75"/><path class="cls-3" d="M123.41,24.71A75,75,0,0,1,43.94,149.92,75,75,0,1,0,123.41,24.71Z"/><path class="cls-3" d="M164.54,70.81A75,75,0,0,1,17.89,92.87,75,75,0,1,0,164.54,70.81Z"/><path class="cls-4" d="M30.82,110.6c-2.67-5.56,23.33-21,20-26-2-3-18.86,4.74-32.93,12.37A74.66,74.66,0,0,0,36.12,141.6a55.85,55.85,0,0,0,6.71-3c8.33-4.67,44.33-45,40-50.67S33.49,116.17,30.82,110.6Z"/><path class="cls-5" d="M168.1,92.85a74.63,74.63,0,0,0-11.23-39.46l-10.94,6.69c-13,10.53-28.84,23.92-27.48,25.87,1.6,2.3,26.14-12.69,27.48-10.63,1.61,2.47-31.93,26.28-30.1,29.12,1.57,2.45,27.67-13.18,30.52-9.24,2.15,3-10.74,14.33-9.33,16.33,1.53,2.18,16.15-7.22,31-16.85C168.07,94.07,168.1,93.47,168.1,92.85Z"/><path class="cls-6" d="M92.6,37l-22-14.08-4.06-.22a75.22,75.22,0,0,0-37.5,30.47c22.05,10.39,30.31,13,31.15,11.54,1.27-2.18-13.94-12.46-12.28-15.42,2.1-3.74,28.81,8.35,30.48,5.09,1.11-2.17-10-9-8.9-11.08,1.74-3.4,32.47,10.46,34.66,7C106.14,47.13,92.6,37,92.6,37Z"/></g></g></svg>