<svg xmlns="http://www.w3.org/2000/svg" viewBox="0 0 186.14 186.14"><defs><style>.cls-1{fill:#21aac3;opacity:0.3;}.cls-2{fill:#42b6cf;}.cls-3{fill:#230946;opacity:0.45;}.cls-4{fill:#3b0c6c;opacity:0.4;}.cls-5{fill:#6dc8d8;}</style></defs><title>Asset 34</title><g id="Layer_2" data-name="Layer 2"><g id="Layer_1-2" data-name="Layer 1"><circle class="cls-1" cx="93.07" cy="93.07" r="93.07"/><circle class="cls-2" cx="93.07" cy="93.07" r="75"/><path class="cls-3" d="M147.8,41.82a75,75,0,0,1-124.21,79.5A75,75,0,1,0,147.8,41.82Z"/><path class="cls-4" d="M94,18.09a75,75,0,0,1-29.3,144.53A75,75,0,1,0,94,18.09Z"/><path class="cls-5" d="M128.47,26.95a74.54,74.54,0,0,0-33.89-8.86C96.82,25,106.89,34.83,101,40.22c-1.53,1.42-3.88,2-8.57,3.25-12.29,3.2-18.42,1.1-20.11,2.89-3.12,3.27,15.16,12.83,12.49,15.93-3.54,4.11-40.63-6.95-57.15-6a74.89,74.89,0,0,0-5.14,11.17C28.24,76,40.41,87,35.69,91.35c-3,2.75-10.65.93-17.62.8a75.83,75.83,0,0,0,.32,7.88A74.78,74.78,0,0,0,26,126.55c5.42-4.6-.67-12.35,3.9-15.88,8.42-6.49,39.36,12,43,8.77S47.28,94.51,52.54,89.55c4.1-3.86,26.36,5.06,29.56,1.78S63.87,76.12,67.64,71.92c4.91-5.45,45.76,9.44,55.92,0,5.85-5.43.69-18.16-2-24.85-3.54-8.72-7.43-11.31-4.78-14.9C118.82,29.4,123.4,27.91,128.47,26.95Z"/></g></g></svg>