<svg xmlns="http://www.w3.org/2000/svg" viewBox="0 0 161.45 161.45"><defs><style>.cls-1,.cls-5{fill:#ee2184;}.cls-1{opacity:0.3;}.cls-2{fill:#b71989;}.cls-3{fill:#230946;opacity:0.45;}.cls-4{fill:#3b0c6c;opacity:0.5;}</style></defs><title>Asset 37</title><g id="Layer_2" data-name="Layer 2"><g id="Layer_1-2" data-name="Layer 1"><circle class="cls-1" cx="80.72" cy="80.72" r="80.72"/><circle class="cls-2" cx="80.72" cy="80.72" r="61.3"/><path class="cls-3" d="M125.66,38.84a61.29,61.29,0,0,1-101.52,65,61.3,61.3,0,1,0,101.52-65Z"/><path class="cls-4" d="M82.2,19.12a61.29,61.29,0,0,1-24,118.13,61.3,61.3,0,1,0,24-118.13Z"/><path class="cls-5" d="M109.66,26.67A60.92,60.92,0,0,0,82,19.42C83.79,25.08,92,33.11,87.25,37.51c-1.25,1.16-3.17,1.66-7,2.66-10,2.62-15.05.9-16.44,2.36C61.25,45.2,76.19,53,74,55.54,71.11,58.9,40.8,49.87,27.3,50.67a61.21,61.21,0,0,0-4.2,9.13c4.64,7,14.59,16,10.74,19.51-2.44,2.25-8.71.76-14.4.65a62,62,0,0,0,.26,6.44,61.12,61.12,0,0,0,6.18,21.67c4.43-3.76-.55-10.1,3.19-13,6.88-5.31,32.17,9.78,35.14,7.17S43.3,81.89,47.6,77.84c3.35-3.16,21.55,4.13,24.16,1.46S56.86,66.85,59.94,63.42c4-4.45,37.4,7.71,45.71,0,4.78-4.44.57-14.84-1.65-20.31-2.89-7.12-6.08-9.25-3.9-12.18C101.77,28.67,105.52,27.46,109.66,26.67Z"/></g></g></svg>