<svg xmlns="http://www.w3.org/2000/svg" viewBox="0 0 54.84 54.91"><defs><style>.cls-1{fill:#f8a31c;}.cls-2{fill:#f96d11;opacity:0.4;}.cls-3,.cls-4,.cls-5{fill:#f8da14;}.cls-3{opacity:0.5;}.cls-4{opacity:0.6;}.cls-5{opacity:0.35;}</style></defs><title>Asset 31</title><g id="Layer_2" data-name="Layer 2"><g id="Layer_1-2" data-name="Layer 1"><circle class="cls-1" cx="27.38" cy="27.38" r="27.38"/><path class="cls-2" d="M38.52,2.49a27.37,27.37,0,0,1-29,45.71,27.37,27.37,0,1,0,29-45.71Z"/><path class="cls-2" d="M53.54,19.32A27.37,27.37,0,0,1,0,27.38a27.37,27.37,0,1,0,53.53-8.05Z"/><path class="cls-3" d="M4.73,33.85c-1-2,8.52-7.67,7.3-9.49-.74-1.11-6.89,1.73-12,4.52A27.25,27.25,0,0,0,6.66,45.16a20.39,20.39,0,0,0,2.45-1.09c3-1.7,16.18-16.43,14.6-18.5S5.7,35.88,4.73,33.85Z"/><path class="cls-4" d="M54.84,27.37A27.24,27.24,0,0,0,50.74,13l-4,2.44c-4.74,3.85-10.53,8.73-10,9.44s9.54-4.63,10-3.88-11.66,9.59-11,10.63,10.1-4.81,11.14-3.37c.79,1.08-3.92,5.23-3.41,6s5.9-2.64,11.33-6.15C54.83,27.81,54.84,27.59,54.84,27.37Z"/><path class="cls-5" d="M27.28,7l-8-5.14-1.48-.08A27.46,27.46,0,0,0,4.08,12.89c8.05,3.79,11.06,4.74,11.37,4.21.46-.79-5.09-4.55-4.48-5.63.77-1.37,10.52,3,11.13,1.86.41-.79-3.64-3.28-3.25-4C19.48,8,30.7,13.1,31.5,11.82S27.28,7,27.28,7Z"/></g></g></svg>