<svg xmlns="http://www.w3.org/2000/svg" viewBox="0 0 117.33 117.33"><defs><style>.cls-1,.cls-5{fill:#ee2184;}.cls-1{opacity:0.3;}.cls-2{fill:#b71989;}.cls-3{fill:#230946;opacity:0.45;}.cls-4{fill:#3b0c6c;opacity:0.5;}</style></defs><title>Asset 40</title><g id="Layer_2" data-name="Layer 2"><g id="Layer_1-2" data-name="Layer 1"><circle class="cls-1" cx="58.67" cy="58.67" r="58.67"/><circle class="cls-2" cx="58.67" cy="58.67" r="44.55"/><path class="cls-3" d="M91.32,28.23A44.54,44.54,0,0,1,17.54,75.45,44.55,44.55,0,1,0,91.32,28.23Z"/><path class="cls-4" d="M59.74,13.89A44.54,44.54,0,0,1,42.34,99.75,44.55,44.55,0,1,0,59.74,13.89Z"/><path class="cls-5" d="M79.69,19.38a44.28,44.28,0,0,0-20.13-5.26c1.33,4.11,7.31,9.94,3.84,13.14-.91.84-2.31,1.2-5.09,1.93-7.3,1.9-10.94.66-11.95,1.71-1.85,1.94,9,7.62,7.42,9.46-2.1,2.44-24.13-4.13-33.95-3.54a44.48,44.48,0,0,0-3.05,6.63c3.38,5.07,10.6,11.59,7.8,14.18-1.77,1.63-6.33.55-10.47.48a45,45,0,0,0,.19,4.68A44.42,44.42,0,0,0,18.8,78.54c3.22-2.73-.4-7.34,2.32-9.43,5-3.86,23.38,7.1,25.54,5.21S31.47,59.51,34.59,56.57c2.43-2.29,15.66,3,17.56,1.06s-10.83-9-8.58-11.53c2.91-3.24,27.18,5.6,33.22,0,3.48-3.23.41-10.79-1.2-14.76-2.1-5.18-4.42-6.72-2.84-8.85C74,20.84,76.69,20,79.69,19.38Z"/></g></g></svg>