<svg xmlns="http://www.w3.org/2000/svg" viewBox="0 0 185.6 185.6"><defs><style>.cls-1{fill:#f79d0f;}.cls-1,.cls-3{opacity:0.4;}.cls-2{fill:#f8a31c;}.cls-3{fill:#f96d11;}.cls-4,.cls-5,.cls-6{fill:#f8da14;}.cls-4{opacity:0.5;}.cls-5{opacity:0.6;}.cls-6{opacity:0.35;}</style></defs><title>Asset 32</title><g id="Layer_2" data-name="Layer 2"><g id="Layer_1-2" data-name="Layer 1"><circle class="cls-1" cx="92.8" cy="92.8" r="92.8"/><circle class="cls-2" cx="92.8" cy="92.8" r="74.94"/><path class="cls-3" d="M24.68,62.3a74.92,74.92,0,0,1,125.11,79.4A74.92,74.92,0,1,0,24.68,62.3Z"/><path class="cls-3" d="M70.75,21.19a74.92,74.92,0,0,1,22,146.53,74.92,74.92,0,1,0-22-146.53Z"/><path class="cls-4" d="M110.51,154.8c-5.56,2.66-21-23.31-26-20-3,2,4.74,18.84,12.36,32.9a74.59,74.59,0,0,0,44.59-18.21,55.8,55.8,0,0,0-3-6.7c-4.66-8.33-45-44.3-50.62-40S116.07,152.14,110.51,154.8Z"/><path class="cls-5" d="M92.78,17.64A74.57,74.57,0,0,0,53.34,28.85L60,39.78c10.52,13,23.9,28.82,25.85,27.46,2.3-1.6-12.68-26.11-10.62-27.46,2.46-1.61,26.26,31.91,29.1,30.08,2.45-1.57-13.17-27.65-9.23-30.5,3-2.15,14.31,10.73,16.32,9.33,2.18-1.52-7.22-16.14-16.84-31C94,17.67,93.39,17.64,92.78,17.64Z"/><path class="cls-6" d="M37,93.08,22.91,115l-.22,4.06a75.16,75.16,0,0,0,30.45,37.47c10.38-22,13-30.29,11.53-31.13-2.17-1.27-12.45,13.93-15.41,12.27-3.74-2.1,8.35-28.78,5.08-30.45-2.17-1.11-9,10-11.07,8.89-3.39-1.73,10.45-32.44,7-34.63C47.09,79.55,37,93.08,37,93.08Z"/></g></g></svg>