<svg xmlns="http://www.w3.org/2000/svg" viewBox="0 0 125.78 125.78"><defs><style>.cls-1{fill:#ee2184;opacity:0.3;}.cls-2{fill:#a53860;}.cls-3{fill:#450c20;opacity:0.4;}.cls-4{fill:#f6a4ab;opacity:0.5;}</style></defs><title>Asset 42</title><g id="Layer_2" data-name="Layer 2"><g id="Layer_1-2" data-name="Layer 1"><circle class="cls-1" cx="62.89" cy="62.89" r="62.89"/><circle class="cls-2" cx="62.89" cy="62.89" r="51.53"/><path class="cls-3" d="M98.1,100.66A51.52,51.52,0,0,1,43.48,15.32,51.53,51.53,0,1,0,98.1,100.66Z"/><path class="cls-3" d="M114.68,64.14A51.52,51.52,0,0,1,15.37,44a51.53,51.53,0,1,0,99.3,20.13Z"/><path class="cls-4" d="M108.33,87.21a51.21,51.21,0,0,0,6.09-23.28c-4.75,1.54-11.5,8.45-15.2,4.44-1-1.05-1.39-2.67-2.23-5.89-2.2-8.45-.76-12.65-2-13.82-2.25-2.14-8.81,10.42-10.94,8.58-2.82-2.43,4.77-27.91,4.1-39.27a51.45,51.45,0,0,0-7.67-3.53c-5.86,3.9-13.41,12.27-16.4,9-1.89-2.05-.64-7.32-.55-12.11a52.1,52.1,0,0,0-5.42.22,51.38,51.38,0,0,0-18.22,5.2c3.16,3.73,8.49-.46,10.91,2.68,4.46,5.79-8.22,27-6,29.54S61.91,31.43,65.32,35C68,37.86,61.84,53.16,64.1,55.35s10.46-12.52,13.34-9.93c3.74,3.37-6.48,31.44,0,38.42,3.73,4,12.48.48,17.07-1.39,6-2.43,7.77-5.11,10.24-3.28C106.65,80.59,107.67,83.73,108.33,87.21Z"/></g></g></svg>