<svg xmlns="http://www.w3.org/2000/svg" viewBox="0 0 126.36 126.36"><defs><style>.cls-1{fill:#ee2184;opacity:0.3;}.cls-2{fill:#da627d;}.cls-3{fill:#a53860;opacity:0.4;}.cls-4{fill:#f9c726;opacity:0.6;}</style></defs><title>Asset 38</title><g id="Layer_2" data-name="Layer 2"><g id="Layer_1-2" data-name="Layer 1"><circle class="cls-1" cx="63.18" cy="63.18" r="63.18" transform="translate(-26.17 63.18) rotate(-45)"/><circle class="cls-2" cx="63.18" cy="63.18" r="52.18" transform="translate(-26.17 63.18) rotate(-45)"/><path class="cls-3" d="M14.63,44.66a52.16,52.16,0,0,0,100.68,22.5A52.17,52.17,0,1,1,14.63,44.66Z"/><path class="cls-3" d="M17.07,87.58a52.16,52.16,0,0,0,83-61.29,52.17,52.17,0,1,1-83,61.29Z"/><path class="cls-4" d="M102.43,41.38c-1.42-4-21.81,1.15-22.63-3-.5-2.49,11.61-6.94,22.28-10.11a51.94,51.94,0,0,1,13,30.92,38.85,38.85,0,0,1-4.78,1.83c-6.39,1.8-43.94-.33-44.6-5.25S103.85,45.42,102.43,41.38Z"/><path class="cls-4" d="M26.16,100.17A51.92,51.92,0,0,1,12.27,75.24l8.67-2.09c11.57-1.21,26-2.42,26.24-.79.34,1.92-19.1,6.61-18.75,8.29.42,2,28.63-2.78,29.13-.48.43,2-20.09,7.13-19.56,10.47.4,2.52,12.33,1.76,12.63,3.44s-11.5,4.39-23.56,7C26.78,100.76,26.47,100.47,26.16,100.17Z"/><path class="cls-4" d="M35.84,35.56l3.88-17.74,1.89-2.11A52.33,52.33,0,0,1,75,12.26c-5.74,16-8.52,21.3-9.65,21-1.69-.45.73-13-1.55-13.63C61,18.83,53.79,37.91,51.36,37.13c-1.62-.52.49-9.32-1.07-9.83-2.52-.82-10.83,21.12-13.62,20.47C34.15,47.2,35.84,35.56,35.84,35.56Z"/></g></g></svg>