<svg xmlns="http://www.w3.org/2000/svg" viewBox="0 0 419.78 287.48"><defs><style>.cls-1,.cls-3,.cls-4{opacity:0.4;}.cls-2{fill:#27aecd;}.cls-3{fill:#1977ad;}.cls-4,.cls-8{fill:#3c5ca8;}.cls-10,.cls-5,.cls-6,.cls-9{fill:none;stroke:#27aecd;stroke-miterlimit:10;}.cls-5{stroke-width:18.45px;}.cls-5,.cls-9{opacity:0.5;}.cls-6{stroke-width:16.6px;}.cls-10,.cls-6{opacity:0.7;}.cls-7{fill:#42b6cf;}.cls-8{opacity:0.6;}.cls-9{stroke-width:16.24px;}.cls-10{stroke-width:14.61px;}.cls-11{fill:#89d2d9;}</style></defs><title>Asset 35</title><g id="Layer_2" data-name="Layer 2"><g id="Layer_1-2" data-name="Layer 1"><g class="cls-1"><circle class="cls-2" cx="209.89" cy="138.65" r="138.37"/><path class="cls-3" d="M304.44,239.63A138.35,138.35,0,0,1,157.78,10.46,138.36,138.36,0,1,0,304.44,239.63Z"/><path class="cls-4" d="M348.22,140.32A138.35,138.35,0,0,1,81.57,86.26a138.36,138.36,0,1,0,266.65,54.06Z"/><ellipse class="cls-5" cx="209.89" cy="143.74" rx="77.49" ry="228.77" transform="translate(-20.88 250.79) rotate(-59.29)"/><ellipse class="cls-6" cx="209.89" cy="143.74" rx="70.61" ry="217.7" transform="translate(-20.88 250.79) rotate(-59.29)"/></g><circle class="cls-7" cx="209.89" cy="138.72" r="121.78"/><path class="cls-3" d="M293.11,227.6A121.76,121.76,0,0,1,164,25.9,121.78,121.78,0,1,0,293.11,227.6Z"/><path class="cls-8" d="M331.64,140.19A121.76,121.76,0,0,1,96.95,92.61a121.78,121.78,0,1,0,234.69,47.58Z"/><ellipse class="cls-9" cx="209.89" cy="143.2" rx="68.2" ry="201.35" transform="translate(-20.42 250.53) rotate(-59.29)"/><ellipse class="cls-10" cx="209.89" cy="143.2" rx="62.15" ry="191.61" transform="translate(-20.42 250.53) rotate(-59.29)"/><path class="cls-11" d="M330.28,159.1a119.29,119.29,0,0,0-3.13-56c-9.43,6.81-19.46,27-30.53,20.71-2.91-1.64-5-4.92-9.16-11.47-10.91-17.15-10.72-27.51-14.27-29.22-6.51-3.14-12.1,29.39-18.13,26.84-8-3.38-9.36-65.3-19-90a119.86,119.86,0,0,0-19.54-2.35c-10.21,12.84-21,36.77-29.91,31.72-5.65-3.2-6.65-15.77-9.87-26.45a121.37,121.37,0,0,0-11.85,4.36,119.67,119.67,0,0,0-36.68,24.53c9.67,6,18.49-7.09,26.1-1.85,14,9.64,1.09,65.83,7.73,69.8s25.42-51.18,35.56-45.61c7.89,4.34,5.23,42.64,11.79,45.9,6.78,3.37,14.24-35.23,22.49-31.54,10.71,4.8,8.08,74.34,27.44,85.19,11.15,6.25,28-7.86,36.86-15.27,11.54-9.66,13.59-16.88,20.35-14.59C321.81,145.62,326.33,151.87,330.28,159.1Z"/></g></g></svg>