<svg xmlns="http://www.w3.org/2000/svg" viewBox="0 0 149.87 149.87"><defs><style>.cls-1{fill:#f79d0f;}.cls-1,.cls-3{opacity:0.4;}.cls-2{fill:#f8a31c;}.cls-3{fill:#f96d11;}.cls-4,.cls-5,.cls-6{fill:#f8da14;}.cls-4{opacity:0.5;}.cls-5{opacity:0.6;}.cls-6{opacity:0.35;}</style></defs><title>Asset 43</title><g id="Layer_2" data-name="Layer 2"><g id="Layer_1-2" data-name="Layer 1"><circle class="cls-1" cx="74.94" cy="74.94" r="74.94"/><circle class="cls-2" cx="74.94" cy="74.94" r="60.51"/><path class="cls-3" d="M19.93,50.3a60.5,60.5,0,0,1,101,64.12,60.5,60.5,0,1,0-101-64.12Z"/><path class="cls-3" d="M57.13,17.11a60.5,60.5,0,0,1,17.8,118.32A60.5,60.5,0,1,0,57.13,17.11Z"/><path class="cls-4" d="M89.24,125c-4.49,2.15-16.94-18.83-21-16.14-2.45,1.63,3.83,15.22,10,26.57a60.24,60.24,0,0,0,36-14.7,45.06,45.06,0,0,0-2.42-5.41C108.06,108.6,75.52,79.55,70.95,83S93.73,122.85,89.24,125Z"/><path class="cls-5" d="M74.92,14.24A60.21,60.21,0,0,0,43.08,23.3l5.4,8.83C57,42.61,67.77,55.4,69.34,54.3,71.2,53,59.1,33.21,60.77,32.13c2-1.3,21.2,25.76,23.5,24.29,2-1.27-10.63-22.32-7.45-24.63,2.4-1.74,11.56,8.66,13.18,7.53s-5.83-13-13.6-25C75.9,14.27,75.41,14.24,74.92,14.24Z"/><path class="cls-6" d="M29.86,75.16,18.5,92.89l-.18,3.28a60.69,60.69,0,0,0,24.59,30.26c8.38-17.79,10.48-24.46,9.31-25.13-1.76-1-10.05,11.25-12.44,9.91-3-1.69,6.74-23.24,4.11-24.59-1.75-.9-7.25,8-8.94,7.18-2.74-1.4,8.44-26.2,5.62-28C38,64.24,29.86,75.16,29.86,75.16Z"/></g></g></svg>