<svg xmlns="http://www.w3.org/2000/svg" viewBox="0 0 57.25 57.25"><defs><style>.cls-1{fill:#42b6cf;}.cls-2{fill:#230946;opacity:0.45;}.cls-3{fill:#3b0c6c;opacity:0.4;}.cls-4{fill:#6dc8d8;}</style></defs><title>Asset 39</title><g id="Layer_2" data-name="Layer 2"><g id="Layer_1-2" data-name="Layer 1"><circle class="cls-1" cx="28.63" cy="28.63" r="28.63"/><path class="cls-2" d="M49.52,9.07A28.62,28.62,0,0,1,2.11,39.41,28.62,28.62,0,1,0,49.52,9.07Z"/><path class="cls-3" d="M29,0A28.62,28.62,0,0,1,17.79,55.17,28.62,28.62,0,1,0,29,0Z"/><path class="cls-4" d="M42.14,3.39A28.45,28.45,0,0,0,29.2,0c.86,2.64,4.7,6.39,2.47,8.45-.59.54-1.48.77-3.27,1.24-4.69,1.22-7,.42-7.68,1.1-1.19,1.25,5.79,4.9,4.77,6.08C24.14,18.44,10,14.22,3.68,14.6a28.58,28.58,0,0,0-2,4.26c2.17,3.26,6.81,7.45,5,9.11-1.14,1-4.07.36-6.73.31a28.94,28.94,0,0,0,.12,3A28.54,28.54,0,0,0,3,41.4c2.07-1.75-.26-4.72,1.49-6.06,3.21-2.48,15,4.57,16.41,3.35s-9.76-9.51-7.75-11.41c1.56-1.47,10.06,1.93,11.28.68s-7-5.81-5.51-7.41c1.87-2.08,17.47,3.6,21.34,0,2.23-2.07.26-6.93-.77-9.48-1.35-3.33-2.84-4.32-1.82-5.69C38.46,4.33,40.2,3.76,42.14,3.39Z"/></g></g></svg>