<svg xmlns="http://www.w3.org/2000/svg" viewBox="0 0 236.25 236.25"><defs><style>.cls-1{fill:#ee2184;opacity:0.3;}.cls-2{fill:#da627d;}.cls-3{fill:#a53860;opacity:0.4;}.cls-4{fill:#f9c726;opacity:0.6;}</style></defs><title>Asset 30</title><g id="Layer_2" data-name="Layer 2"><g id="Layer_1-2" data-name="Layer 1"><circle class="cls-1" cx="118.12" cy="118.12" r="118.12"/><circle class="cls-2" cx="118.12" cy="118.12" r="97.55"/><path class="cls-3" d="M157.83,29.46A97.52,97.52,0,0,1,54.47,192.31,97.53,97.53,0,1,0,157.83,29.46Z"/><path class="cls-3" d="M211.33,89.42A97.52,97.52,0,0,1,20.6,118.12a97.53,97.53,0,1,0,190.74-28.7Z"/><path class="cls-4" d="M37.41,141.18c-3.47-7.23,30.35-27.31,26-33.82-2.63-3.95-24.53,6.17-42.83,16.09a97.1,97.1,0,0,0,23.7,58,72.64,72.64,0,0,0,8.73-3.9c10.84-6.07,57.66-58.53,52-65.9S40.88,148.41,37.41,141.18Z"/><path class="cls-4" d="M216,118.09a97.07,97.07,0,0,0-14.6-51.33l-14.23,8.7c-16.9,13.7-37.51,31.1-35.74,33.64,2.09,3,34-16.51,35.74-13.83,2.09,3.21-41.53,34.18-39.15,37.88,2,3.18,36-17.14,39.7-12,2.8,3.86-14,18.63-12.14,21.24,2,2.83,21-9.4,40.36-21.92C215.92,119.68,216,118.89,216,118.09Z"/><path class="cls-4" d="M117.76,45.46,89.18,27.15l-5.28-.29A97.84,97.84,0,0,0,35.12,66.49C63.8,80,74.55,83.38,75.64,81.5c1.65-2.83-18.13-16.21-16-20.06,2.73-4.87,37.47,10.87,39.64,6.62,1.45-2.83-13-11.68-11.57-14.41C90,49.23,130,67.24,132.81,62.7,135.37,58.62,117.76,45.46,117.76,45.46Z"/></g></g></svg>