<svg xmlns="http://www.w3.org/2000/svg" viewBox="0 0 185.6 185.6"><defs><style>.cls-1{fill:#f79d0f;}.cls-1,.cls-3{opacity:0.4;}.cls-2{fill:#f8a31c;}.cls-3{fill:#f96d11;}.cls-4{fill:#fff;opacity:0.78;}</style></defs><title>Asset 28</title><g id="Layer_2" data-name="Layer 2"><g id="Layer_1-2" data-name="Layer 1"><circle class="cls-1" cx="92.8" cy="92.8" r="92.8"/><circle class="cls-2" cx="92.8" cy="92.8" r="74.94"/><path class="cls-3" d="M123.3,24.68A74.92,74.92,0,0,1,43.9,149.79,74.92,74.92,0,1,0,123.3,24.68Z"/><path class="cls-3" d="M164.41,70.75a74.92,74.92,0,0,1-146.53,22,74.92,74.92,0,1,0,146.53-22Z"/><path class="cls-4" d="M49.13,105.47a57.66,57.66,0,0,1,86.35-50,57.66,57.66,0,1,0-73.71,86A57.41,57.41,0,0,1,49.13,105.47Z"/></g></g></svg>