<svg id="Layer_1" data-name="Layer 1" xmlns="http://www.w3.org/2000/svg" xmlns:xlink="http://www.w3.org/1999/xlink" viewBox="0 0 201.16 201.16"><defs><style>.cls-1{fill:url(#linear-gradient);}.cls-2{fill:#fcfcfc;}.cls-3{fill:#f65721;}.cls-4{fill:#1b0909;}.cls-5{fill:#19a1c8;}.cls-6{fill:#0e1218;}</style><linearGradient id="linear-gradient" y1="100.58" x2="201.16" y2="100.58" gradientUnits="userSpaceOnUse"><stop offset="0" stop-color="#f55aa6"/><stop offset="0.15" stop-color="#f66698"/><stop offset="0.44" stop-color="#f77783"/><stop offset="0.72" stop-color="#f88277"/><stop offset="1" stop-color="#f88573"/></linearGradient></defs><title>adobe</title><circle class="cls-1" cx="100.58" cy="100.58" r="100.58"/><circle class="cls-2" cx="100.58" cy="100.58" r="76.86"/><path class="cls-3" d="M104,109.51a5.89,5.89,0,0,1,5.89-5.89h41.2a5.89,5.89,0,0,1,5.89,5.89v41.2a5.89,5.89,0,0,1-5.89,5.89h-41.2a5.89,5.89,0,0,1-5.89-5.89Z" transform="translate(-2.42 -3.05)"/><path class="cls-4" d="M108.46,108v44.14H152.6V108Zm21.61,32.37L129,136.13h-5.76l-1.12,4.28h-4.47l6.54-20.92H128l6.58,20.92Zm10.53,0h-4.08V124.86h4.08Zm-.44-18a2.21,2.21,0,0,1-3.83-1.55,2.1,2.1,0,0,1,.6-1.55,2.45,2.45,0,0,1,3.22,0,2.1,2.1,0,0,1,.6,1.55A2.15,2.15,0,0,1,140.17,122.39Z" transform="translate(-2.42 -3.05)"/><path class="cls-4" d="M124.11,132.6H128l-2-7.46Z" transform="translate(-2.42 -3.05)"/><path class="cls-5" d="M50.88,56.25a5.91,5.91,0,0,1,5.91-5.91H98.14A5.91,5.91,0,0,1,104,56.25V97.6a5.91,5.91,0,0,1-5.91,5.91H56.79a5.91,5.91,0,0,1-5.91-5.91Z" transform="translate(-2.42 -3.05)"/><path class="cls-6" d="M71.58,69.8h-3v6.55h2.91a2.31,2.31,0,0,0,1.88-.79,3.51,3.51,0,0,0,.66-2.31,4.16,4.16,0,0,0-.68-2.5A2.18,2.18,0,0,0,71.58,69.8Z" transform="translate(-2.42 -3.05)"/><path class="cls-6" d="M55.31,54.77V99.08H99.62V54.77ZM76.53,78.09a7,7,0,0,1-5.08,1.79H68.62v7.38H64.38v-21h7.15a6.56,6.56,0,0,1,5,1.93,7,7,0,0,1,1.85,5A6.5,6.5,0,0,1,76.53,78.09Zm13.76,8.19a6.36,6.36,0,0,1-4.12,1.27,6.56,6.56,0,0,1-3-.67A5.1,5.1,0,0,1,81.08,85a4.81,4.81,0,0,1-.74-2.58h3.88a2.48,2.48,0,0,0,.5,1.6,2,2,0,0,0,1.54.53q1.64,0,1.64-1.49a1.27,1.27,0,0,0-.5-1,9.88,9.88,0,0,0-2.21-1.19,9.2,9.2,0,0,1-3.47-2.12,4,4,0,0,1-.95-2.73,4.36,4.36,0,0,1,1.48-3.38,5.62,5.62,0,0,1,3.92-1.33,6.1,6.1,0,0,1,4.11,1.33,4.46,4.46,0,0,1,1.54,3.56H87.73q0-1.9-1.59-1.9a1.41,1.41,0,0,0-1.49,1.53,1.18,1.18,0,0,0,.46.92,10.13,10.13,0,0,0,2.18,1.13A9,9,0,0,1,90.83,80a4.19,4.19,0,0,1,1,2.93A4.11,4.11,0,0,1,90.29,86.28Z" transform="translate(-2.42 -3.05)"/></svg>