<svg id="Layer_1" data-name="Layer 1" xmlns="http://www.w3.org/2000/svg" xmlns:xlink="http://www.w3.org/1999/xlink" viewBox="0 0 201.16 201.16"><defs><style>.cls-1{fill:url(#linear-gradient);}.cls-2{fill:#fcfcfc;}.cls-3{fill:#b7161c;}.cls-4{fill:#dd2c09;}.cls-5{fill:#bdbdbd;}.cls-6{fill:#eee;}</style><linearGradient id="linear-gradient" y1="100.58" x2="201.16" y2="100.58" gradientUnits="userSpaceOnUse"><stop offset="0" stop-color="#f79894"/><stop offset="1" stop-color="#f4d5bf"/></linearGradient></defs><title>angular</title><circle class="cls-1" cx="100.58" cy="100.58" r="100.58"/><circle class="cls-2" cx="100.58" cy="100.58" r="76.86"/><path class="cls-3" d="M149.64,70.43,103,54.59v98.05l39.24-21.51Z" transform="translate(-2.42 -3.05)"/><path class="cls-4" d="M102.86,54.54,56.36,70.72l7.4,60.72,39.12,21.26.12-.06V54.59Z" transform="translate(-2.42 -3.05)"/><path class="cls-5" d="M103,59.2V82.77l21.26,45.84h10.93Z" transform="translate(-2.42 -3.05)"/><path class="cls-6" d="M70.81,128.61H81.74L103,82.77V59.2Z" transform="translate(-2.42 -3.05)"/><path class="cls-5" d="M103,103.83h14.87v9.91H103Z" transform="translate(-2.42 -3.05)"/><path class="cls-6" d="M88.13,103.83H103v9.91H88.13Z" transform="translate(-2.42 -3.05)"/></svg>