<svg xmlns="http://www.w3.org/2000/svg" xmlns:xlink="http://www.w3.org/1999/xlink" viewBox="0 0 201.16 201.16"><defs><style>.cls-1{fill:url(#linear-gradient);}.cls-2{fill:#fcfcfc;}.cls-3{fill:#a178b8;}.cls-4{fill:#270968;}.cls-5{fill:#370e81;}.cls-6{fill:#fff;}</style><linearGradient id="linear-gradient" y1="100.58" x2="201.16" y2="100.58" gradientUnits="userSpaceOnUse"><stop offset="0" stop-color="#5952a4"/><stop offset="1" stop-color="#52bbaf"/></linearGradient></defs><title>Asset 22</title><g id="Layer_2" data-name="Layer 2"><g id="Layer_1-2" data-name="Layer 1"><circle class="cls-1" cx="100.58" cy="100.58" r="100.58"/><circle class="cls-2" cx="100.58" cy="100.58" r="76.86"/><path class="cls-3" d="M140.26,82.2a7.88,7.88,0,0,0-1-4,7.58,7.58,0,0,0-2.87-2.8q-15.85-9.14-31.71-18.27a7.78,7.78,0,0,0-8.44.08C92.07,59.74,71,71.8,64.74,75.44A7.33,7.33,0,0,0,60.9,82.2q0,18.38,0,36.76a7.91,7.91,0,0,0,.93,3.89,7.55,7.55,0,0,0,2.91,2.87c6.28,3.63,27.34,15.7,31.54,18.18a7.78,7.78,0,0,0,8.44.08q15.85-9.15,31.71-18.27a7.55,7.55,0,0,0,2.91-2.87,7.92,7.92,0,0,0,.93-3.89s0-24.5,0-36.75"/><path class="cls-4" d="M100.7,100.46,61.82,122.84a7.55,7.55,0,0,0,2.91,2.87c6.28,3.63,27.34,15.7,31.54,18.18a7.78,7.78,0,0,0,8.44.08q15.85-9.15,31.71-18.27a7.55,7.55,0,0,0,2.91-2.87L100.7,100.46"/><path class="cls-5" d="M140.26,82.2a7.88,7.88,0,0,0-1-4L100.7,100.46l38.64,22.38a7.92,7.92,0,0,0,.93-3.89s0-24.5,0-36.75"/><path class="cls-6" d="M123.59,92.09v4.18h4.18V92.09h2.09v4.18h4.18v2.09h-4.18v4.18h4.18v2.09h-4.18v4.18h-2.09v-4.18h-4.18v4.18H121.5v-4.18h-4.18v-2.09h4.18V98.37h-4.18V96.27h4.18V92.09Zm4.18,6.28h-4.18v4.18h4.18Z"/><path class="cls-6" d="M100.78,71.08a29.49,29.49,0,0,1,25.55,14.74l0-.08-12.84,7.39A14.68,14.68,0,0,0,101,85.89h-.17a14.69,14.69,0,1,0,12.8,21.89l-.06.11,12.82,7.43a29.49,29.49,0,0,1-25.23,14.76h-.33a29.5,29.5,0,1,1,0-59Z"/></g></g></svg>