<svg id="Layer_1" data-name="Layer 1" xmlns="http://www.w3.org/2000/svg" xmlns:xlink="http://www.w3.org/1999/xlink" viewBox="0 0 201.16 201.16"><defs><style>.cls-1{fill:url(#linear-gradient);}.cls-2{fill:#fcfcfc;}.cls-3{fill:#16559b;}.cls-4{fill:#1c84b9;}.cls-5{fill:#fff;}.cls-6{fill:#1b74af;}</style><linearGradient id="linear-gradient" y1="100.58" x2="201.16" y2="100.58" gradientUnits="userSpaceOnUse"><stop offset="0" stop-color="#7ccaa8"/><stop offset="1" stop-color="#e5f3b3"/></linearGradient></defs><title>c++</title><circle class="cls-1" cx="100.58" cy="100.58" r="100.58"/><circle class="cls-2" cx="100.58" cy="100.58" r="76.86"/><path class="cls-3" d="M101.56,55.87a5.14,5.14,0,0,1,5,0L145,77.43a4.84,4.84,0,0,1,2.51,4.22v43.13A4.85,4.85,0,0,1,145,129l-38.42,21.56a5.14,5.14,0,0,1-5,0L63.15,129a4.85,4.85,0,0,1-2.51-4.22V81.65a4.85,4.85,0,0,1,2.51-4.22Z" transform="translate(-3.49 -2.64)"/><path class="cls-4" d="M61.34,127a3.93,3.93,0,0,1-.69-2.63V81.49a4.82,4.82,0,0,1,2.5-4.2l38.28-21.44a5.51,5.51,0,0,1,5.19,0c7.64,4.28,30.56,17,38.2,21.33a4.78,4.78,0,0,1,1.51,1.32Z" transform="translate(-3.49 -2.64)"/><path class="cls-5" d="M103.49,71.22a32,32,0,1,0,32,32A32,32,0,0,0,103.49,71.22Zm0,48a16,16,0,1,1,16-16A16,16,0,0,1,103.49,119.22Z" transform="translate(-3.49 -2.64)"/><path class="cls-6" d="M146.32,78.54c1.18,1.1,1.16,2.77,1.16,4.08,0,8.67-.07,33.35,0,42a5,5,0,0,1-.74,2.58l-43.62-24Z" transform="translate(-3.49 -2.64)"/><path class="cls-5" d="M120.07,96.36h4.57v13.71h-4.57Zm16,0h4.57v13.71h-4.57Z" transform="translate(-3.49 -2.64)"/><path class="cls-5" d="M115.5,100.93h13.71v4.57H115.5Zm16,0h13.71v4.57H131.5Z" transform="translate(-3.49 -2.64)"/></svg>