<svg id="Layer_1" data-name="Layer 1" xmlns="http://www.w3.org/2000/svg" xmlns:xlink="http://www.w3.org/1999/xlink" viewBox="0 0 201.16 201.16"><defs><style>.cls-1{fill:url(#linear-gradient);}.cls-2{fill:#fcfcfc;}.cls-3{fill:#270b68;}.cls-4{fill:#a178b0;}.cls-5{fill:#fff;}.cls-6{fill:#350f7b;}</style><linearGradient id="linear-gradient" y1="100.58" x2="201.16" y2="100.58" gradientUnits="userSpaceOnUse"><stop offset="0" stop-color="#5952a4"/><stop offset="1" stop-color="#52bbaf"/></linearGradient></defs><title>c_sharp</title><circle class="cls-1" cx="100.58" cy="100.58" r="100.58"/><circle class="cls-2" cx="100.58" cy="100.58" r="76.86"/><path class="cls-3" d="M100.48,56.26a5.16,5.16,0,0,1,5,0l38.58,21.65a4.86,4.86,0,0,1,2.52,4.24v43.31a4.87,4.87,0,0,1-2.52,4.24l-38.58,21.65a5.16,5.16,0,0,1-5,0L61.9,129.7a4.87,4.87,0,0,1-2.52-4.24V82.16a4.87,4.87,0,0,1,2.52-4.24Z" transform="translate(-2.42 -3.23)"/><path class="cls-4" d="M60.09,127.69a4,4,0,0,1-.7-2.64V82a4.84,4.84,0,0,1,2.51-4.21l38.44-21.53a5.53,5.53,0,0,1,5.21,0c7.67,4.3,30.69,17.12,38.37,21.42A4.8,4.8,0,0,1,145.43,79Z" transform="translate(-2.42 -3.23)"/><path class="cls-5" d="M103,71.68a32.14,32.14,0,1,0,32.14,32.14A32.15,32.15,0,0,0,103,71.68Zm0,48.2a16.07,16.07,0,1,1,16.07-16.07A16.08,16.08,0,0,1,103,119.88Z" transform="translate(-2.42 -3.23)"/><path class="cls-6" d="M145.43,79c1.18,1.11,1.16,2.78,1.16,4.09,0,8.71-.07,33.49,0,42.2a5,5,0,0,1-.74,2.59l-43.81-24.1Z" transform="translate(-2.42 -3.23)"/><path class="cls-5" d="M126,94.63h2.3V113H126Zm6.89,0h2.3V113h-2.3Z" transform="translate(-2.42 -3.23)"/><path class="cls-5" d="M121.36,106.11h18.36v2.3H121.36Zm0-6.89h18.36v2.3H121.36Z" transform="translate(-2.42 -3.23)"/></svg>