<svg id="Layer_1" data-name="Layer 1" xmlns="http://www.w3.org/2000/svg" xmlns:xlink="http://www.w3.org/1999/xlink" viewBox="0 0 201.16 201.16"><defs><style>.cls-1{fill:url(#linear-gradient);}.cls-2{fill:#fcfcfc;}.cls-3{fill:#f14336;}.cls-4{fill:#1863aa;}</style><linearGradient id="linear-gradient" y1="100.58" x2="201.16" y2="100.58" gradientUnits="userSpaceOnUse"><stop offset="0" stop-color="#f6be84"/><stop offset="1" stop-color="#f8f0be"/></linearGradient></defs><title>java</title><circle class="cls-1" cx="100.58" cy="100.58" r="100.58"/><circle class="cls-2" cx="100.58" cy="100.58" r="76.86"/><path class="cls-3" d="M102.05,107.09a83.36,83.36,0,0,1-7.37-14.75C90.1,80.87,122.58,70.5,109.41,50.58c5.71,13.76-20.49,22.27-22.92,33.73C84.26,94.85,102,107.09,102.05,107.09Z" transform="translate(-2.42 -4.08)"/><path class="cls-3" d="M102.67,86.46c-.52,6.8,6,10.43,6.22,15.4.15,4-3.91,7.42-3.91,7.42s7.38-1.45,9.68-7.62c2.56-6.85-5-11.54-4.19-17,.72-5.24,16.31-15,16.31-15S103.84,71.16,102.67,86.46Z" transform="translate(-2.42 -4.08)"/><path class="cls-4" d="M124.86,107.52c4.74-1.07,8.74,2,8.74,5.44,0,7.84-10.87,15.26-10.87,15.26s16.83-2,16.83-14.89C139.56,104.81,131.3,102.68,124.86,107.52Zm-8,6.33s5.25-3.74,6.65-5.14c-12.88,2.73-42.29,3.1-42.29.73,0-2.19,9.48-4.43,9.48-4.43s-21-.3-21,5.9C69.69,117.36,97.21,117.82,116.87,113.84Z" transform="translate(-2.42 -4.08)"/><path class="cls-4" d="M113.64,119.73c-12.19,4.05-34.65,2.76-28-2.69-3.24,0-8,2.6-8,5.11,0,5,24.29,8.9,42.27,1.55Z" transform="translate(-2.42 -4.08)"/><path class="cls-4" d="M88.63,128.3c-4.42,0-7.29,2.85-7.29,4.93,0,6.47,26.39,7.12,36.85.55l-6.65-4.41C103.73,132.8,84.11,133.27,88.63,128.3Z" transform="translate(-2.42 -4.08)"/><path class="cls-4" d="M136.21,138.82c0-2.53-2.85-3.72-3.88-4.29,6,14.53-60.35,13.4-60.35,4.82,0-1.95,4.89-3.86,9.4-3l-3.84-2.27c-9-1.41-15.11,2.54-15.11,5.74C62.44,154.74,136.21,154,136.21,138.82Z" transform="translate(-2.42 -4.08)"/><path class="cls-4" d="M143.56,144.16c-11.21,11.07-39.64,15.11-68.23,8.27C103.92,164.6,143.43,157.74,143.56,144.16Z" transform="translate(-2.42 -4.08)"/></svg>