<svg id="Layer_1" data-name="Layer 1" xmlns="http://www.w3.org/2000/svg" xmlns:xlink="http://www.w3.org/1999/xlink" viewBox="0 0 201.16 201.16"><defs><style>.cls-1{fill:url(#linear-gradient);}.cls-2{fill:#fcfcfc;}.cls-3{fill:#1b76af;}.cls-4{fill:#f8c110;}</style><linearGradient id="linear-gradient" y1="100.58" x2="201.16" y2="100.58" gradientUnits="userSpaceOnUse"><stop offset="0" stop-color="#f5b1d4"/><stop offset="1" stop-color="#f5dce6"/></linearGradient></defs><title>python</title><circle class="cls-1" cx="100.58" cy="100.58" r="100.58"/><circle class="cls-2" cx="100.58" cy="100.58" r="76.86"/><path class="cls-3" d="M104.26,54.24a55.86,55.86,0,0,0-10.23,1C84,56.93,82.2,60.59,82.2,67.33v10.3H105.6v5.2H70c-6.85,0-12.85,3.23-14.75,11-2.15,8.88-2.24,14.45,0,23.72,1.7,6.92,5.45,12.1,12.31,12.1H77V116.35C77,108.64,84,101,92,101H110.8c6.56,0,13-4.84,13-11.38V67.33c0-6.34-4.57-11.08-11-12.14A44.23,44.23,0,0,0,104.26,54.24Zm-13,10.4a3.9,3.9,0,1,1,0,7.8,3.9,3.9,0,1,1,0-7.8Z" transform="translate(-2.42 -3.05)"/><path class="cls-4" d="M101.74,153a55.86,55.86,0,0,0,10.23-1c10-1.74,11.82-5.4,11.82-12.14v-10.3H100.4v-5.2H136c6.85,0,12.85-3.23,14.75-11,2.15-8.88,2.24-14.45,0-23.72-1.71-6.92-5.46-12.1-12.31-12.1H129V90.9c0,7.71-7,15.33-15,15.33H95.2c-6.56,0-13,4.84-13,11.38v22.32c0,6.34,4.57,11.08,11,12.14A44.23,44.23,0,0,0,101.74,153Zm13-10.4a3.9,3.9,0,1,1,0-7.8,3.9,3.9,0,1,1,0,7.8Z" transform="translate(-2.42 -3.05)"/></svg>