<svg id="Layer_1" data-name="Layer 1" xmlns="http://www.w3.org/2000/svg" xmlns:xlink="http://www.w3.org/1999/xlink" viewBox="0 0 201.16 201.16"><defs><style>.cls-1{fill:url(#linear-gradient);}.cls-2{fill:#fcfcfc;}.cls-3{fill:#7fcddc;}</style><linearGradient id="linear-gradient" y1="100.58" x2="201.16" y2="100.58" gradientUnits="userSpaceOnUse"><stop offset="0" stop-color="#a29ac9"/><stop offset="1" stop-color="#dfc9e3"/></linearGradient></defs><title>react</title><circle class="cls-1" cx="100.58" cy="100.58" r="100.58"/><circle class="cls-2" cx="102.01" cy="100.58" r="76.86"/><path class="cls-3" d="M102.26,126.78c-29.81,0-53.16-10.17-53.16-23.11s23.34-23.11,53.16-23.11,53.16,10.17,53.16,23.11S132.08,126.78,102.26,126.78Zm0-41.6c-29.12,0-48.53,9.48-48.53,18.49s19.41,18.49,48.53,18.49,48.53-9.48,48.53-18.49S131.39,85.18,102.26,85.18Z" transform="translate(-1.69 -3.15)"/><path class="cls-3" d="M81.69,151.28a10.67,10.67,0,0,1-6-1.62c-11.32-6.47-8.32-31.66,6.47-57.55h0c6.93-12,15.48-22.19,23.81-28.66,9-6.93,17.1-9,22.65-5.78,5.78,3.24,7.86,11.32,6.47,22.65-1.39,10.63-6,23.11-12.94,35.13s-15.48,22.19-23.81,28.66C92.33,148.74,86.55,151.28,81.69,151.28Zm41.14-90.6c-3.7,0-8.55,2.08-13.87,6.24C101.11,73.16,93,82.87,86.32,94.43h0C71.76,119.62,70.37,141.34,78,145.73c3.93,2.31,10.4.23,17.56-5.32,7.86-6.24,15.95-15.95,22.65-27.5s11.09-23.34,12.48-33.28c1.16-9.24-.23-15.72-4.16-18A9.69,9.69,0,0,0,122.83,60.68Z" transform="translate(-1.69 -3.15)"/><path class="cls-3" d="M123.07,151.28c-11.56,0-28.2-14.1-40.68-36.05-15-25.89-18-51.08-6.7-57.55h0c11.32-6.47,31.66,8.55,46.69,34.44,6.93,12,11.56,24.5,12.94,35.13,1.62,11.32-.69,19.18-6.47,22.65A12.53,12.53,0,0,1,123.07,151.28ZM78,61.61c-7.63,4.39-6.24,26.12,8.32,51.31s32.59,37.21,40.21,32.82c3.93-2.31,5.32-8.78,4.16-18-1.39-9.94-5.78-21.73-12.48-33.28C103.65,69.23,85.62,57.22,78,61.61Z" transform="translate(-1.69 -3.15)"/><circle class="cls-3" cx="100.58" cy="100.52" r="9.24"/></svg>