<svg id="Layer_1" data-name="Layer 1" xmlns="http://www.w3.org/2000/svg" xmlns:xlink="http://www.w3.org/1999/xlink" viewBox="0 0 201.16 201.16"><defs><style>.cls-1{fill:url(#linear-gradient);}.cls-2{fill:#fcfcfc;}.cls-3{fill:#f9d613;}.cls-4{fill:#020202;}.cls-5{fill:#1e73b2;}.cls-6{fill:#fff;}</style><linearGradient id="linear-gradient" y1="100.58" x2="201.16" y2="100.58" gradientUnits="userSpaceOnUse"><stop offset="0" stop-color="#9cb7d8"/><stop offset="1" stop-color="#a9dde3"/></linearGradient></defs><title>ts_js</title><circle class="cls-1" cx="100.58" cy="100.58" r="100.58"/><circle class="cls-2" cx="100.58" cy="100.58" r="76.86"/><path class="cls-3" d="M103.21,153V103.89h49.14V153Z" transform="translate(-2.63 -3.37)"/><path class="cls-4" d="M135.34,140.67c.94,1.53,2,3,4.15,3,1.83,0,2.78-.91,2.78-2.16,0-1.5-1-2-3-2.91l-1.1-.47c-3.18-1.35-5.29-3-5.29-6.61,0-3.29,2.52-5.79,6.45-5.79a6.52,6.52,0,0,1,6.27,3.51l-3.43,2.19a3,3,0,0,0-2.84-1.88,1.91,1.91,0,0,0-2.11,1.88c0,1.32.82,1.85,2.71,2.66l1.1.47c3.75,1.6,5.86,3.23,5.86,6.89,0,3.95-3.12,6.11-7.3,6.11a8.05,8.05,0,0,1-7.71-4.6Zm-15.82.11a3.73,3.73,0,0,0,3.25,2.19c1.44,0,2.28-.57,2.28-2.79V125.73h4.55v15.15c0,4.6-2.67,6.69-6.56,6.69a8,8,0,0,1-7.09-4.6Z" transform="translate(-2.63 -3.37)"/><rect class="cls-5" x="51.44" y="51.44" width="49.14" height="49.14"/><polygon class="cls-6" points="80.77 73.28 62.67 73.28 62.67 77.74 69.16 77.74 69.16 97.85 74.31 97.85 74.31 77.74 80.77 77.74 80.77 73.28"/><path class="cls-6" d="M99.38,82.22a10.62,10.62,0,0,0-5.2-1.63c-2.76,0-3.75,1.31-3.75,2.71,0,3.61,10.08,3.25,10.08,10.53,0,11.21-15.36,6.24-15.36,6.24V94.69a12.07,12.07,0,0,0,6.46,2.21c3.52,0,3.39-2.3,3.39-2.62,0-3.34-10-3.34-10-10.75,0-10.08,14.55-6.1,14.55-6.1Z" transform="translate(-2.63 -3.37)"/></svg>