<svg id="Layer_1" data-name="Layer 1" xmlns="http://www.w3.org/2000/svg" viewBox="0 0 1033.18 104.75"><defs><style>.cls-1{fill:none;stroke:#fff;stroke-miterlimit:10;stroke-width:4px;}</style></defs><title>hello_there</title><path class="cls-1" d="M500,414.47v43h48v-43h14.35v99.09H548.08v-43H500v43H485.69V414.47Zm157.62-.2v13.19H610.78v30h35.15v13.19H610.78v30h46.88v13.19h-61.3V414.27Zm44,.2v86h46.88v13.06h-61.3V414.47Zm90.88,0v86h46.88v13.06h-61.3V414.47Zm133.28,2.87a56.55,56.55,0,0,1,17.75,11.19,50.46,50.46,0,0,1,12.1,16.26,48,48,0,0,1,0,38.65,49.52,49.52,0,0,1-12.1,16.26,55,55,0,0,1-17.75,11.06,61.87,61.87,0,0,1-42,0,53.73,53.73,0,0,1-17.68-11.06,48,48,0,0,1-12-16.33,48.52,48.52,0,0,1,0-38.51,50.4,50.4,0,0,1,12-16.39,55.22,55.22,0,0,1,17.68-11.13,61.87,61.87,0,0,1,42,0Zm-36.38,12.46a41.22,41.22,0,0,0-12.9,8.13,36.6,36.6,0,0,0-8.84,11.93A34.44,34.44,0,0,0,864.8,464a33.84,33.84,0,0,0,2.9,14.13A35.27,35.27,0,0,0,876.54,490a37.4,37.4,0,0,0,12.9,8.06,43.39,43.39,0,0,0,15.43,2.73,42.59,42.59,0,0,0,15.29-2.73,40.1,40.1,0,0,0,13-8.06A36.58,36.58,0,0,0,942,478.1,32.74,32.74,0,0,0,945,464a33.31,33.31,0,0,0-3-14.13,39.59,39.59,0,0,0-8.77-11.93,40.86,40.86,0,0,0-28.33-10.86A43.39,43.39,0,0,0,889.44,429.79Zm206.18-15.33h24.2v13.13h-28.77v86h-14.42v-86h-28.77V414.47h47.75Zm68.13,0v43h48v-43h14.35v99.09H1211.8v-43h-48v43H1149.4V414.47Zm157.62-.2v13.19h-46.88v30h35.14v13.19h-35.14v30h46.88v13.19h-61.3V414.27Zm29.58.2h33.62a44.33,44.33,0,0,1,15.22,2.6A38.17,38.17,0,0,1,1412,424.2a33.16,33.16,0,0,1,7.68,9.79,26.9,26.9,0,0,1,2.32,11.66v2.8a26.15,26.15,0,0,1-1.67,9.46,36.64,36.64,0,0,1-4.93,8.6,23.9,23.9,0,0,1-5.36,5.26,29,29,0,0,1-6.67,3.2l-5.07,1.87,3,4.26L1424,513.55h-18l-24.57-34.72h-15.94v34.72H1351Zm35.8,51.11.07.07a20.79,20.79,0,0,0,7.75-1.33,22.18,22.18,0,0,0,6.16-4.2,17.54,17.54,0,0,0,6-13.79,18.34,18.34,0,0,0-1.38-7.2,21.59,21.59,0,0,0-4.57-6v-.07a20.34,20.34,0,0,0-7.83-4.13,33.45,33.45,0,0,0-9.86-1.4h-17.68v38h4.49l5.43.07h11.38Zm128.13-51.31v13.19H1468v30h35.14v13.19H1468v30h46.88v13.19h-61.3V414.27Z" transform="translate(-483.69 -411.67)"/></svg>