<svg id="Layer_1" data-name="Layer 1" xmlns="http://www.w3.org/2000/svg" viewBox="0 0 377.82 25.54"><defs><style>.cls-1{fill:#fff;stroke:#fff;stroke-miterlimit:10;stroke-width:1.81px;}</style></defs><title>subtitle__tablet</title><path class="cls-1" d="M8.86,14.21l4.9,12.29,4.29-11.62L22.33,26.5l4.88-12.29H30.3l-8,20L18,22.2,13.73,34.15,5.79,14.21Zm42.74,0v2.61H42.31v5.94h7v2.61h-7v5.94H51.6V33.9H39.45V14.17Zm12,0v17H72.9v2.59H60.75V14.21Zm25.52-.11a12.89,12.89,0,0,1,2.18.18,11.07,11.07,0,0,1,2,.59,13.72,13.72,0,0,1,1.87.94q.52.33.95.65l-2.05,1.89a8.13,8.13,0,0,0-1.91-1.07,8.44,8.44,0,0,0-3-.54,8.56,8.56,0,0,0-3,.54,8.28,8.28,0,0,0-2.56,1.61,7.24,7.24,0,0,0-1.74,2.36h0a7.14,7.14,0,0,0,0,5.61,7.29,7.29,0,0,0,1.75,2.35,7.41,7.41,0,0,0,2.56,1.6,8.56,8.56,0,0,0,3,.54,8.68,8.68,0,0,0,3.06-.54,7.34,7.34,0,0,0,1.91-1.06l2,1.89a11.14,11.14,0,0,1-.95.65,10.79,10.79,0,0,1-1.87.94,10.26,10.26,0,0,1-2,.58A12.19,12.19,0,0,1,85,33.29a10.65,10.65,0,0,1-3.5-2.19,9.5,9.5,0,0,1-2.38-3.23,9.61,9.61,0,0,1,0-7.63A10,10,0,0,1,81.5,17,10.94,10.94,0,0,1,85,14.78a11.27,11.27,0,0,1,3-.67Zm28.22.67A11.21,11.21,0,0,1,120.88,17a10,10,0,0,1,2.4,3.22,9.52,9.52,0,0,1,0,7.66,9.81,9.81,0,0,1-2.4,3.22,10.91,10.91,0,0,1-3.52,2.19,12.27,12.27,0,0,1-8.31,0,10.64,10.64,0,0,1-3.5-2.19,9.5,9.5,0,0,1-2.38-3.23,9.61,9.61,0,0,1,0-7.63A10,10,0,0,1,105.54,17a10.94,10.94,0,0,1,3.5-2.21,12.27,12.27,0,0,1,8.31,0Zm-7.21,2.47a8.17,8.17,0,0,0-2.56,1.61,7.26,7.26,0,0,0-1.75,2.36,6.82,6.82,0,0,0-.57,2.8,6.7,6.7,0,0,0,.57,2.8,7,7,0,0,0,1.75,2.36,7.41,7.41,0,0,0,2.56,1.6,8.6,8.6,0,0,0,3.06.54,8.44,8.44,0,0,0,3-.54,8,8,0,0,0,2.57-1.6,7.25,7.25,0,0,0,1.75-2.36,6.48,6.48,0,0,0,.6-2.8,6.6,6.6,0,0,0-.6-2.8,7.84,7.84,0,0,0-1.74-2.36,8.1,8.1,0,0,0-5.62-2.15A8.6,8.6,0,0,0,110.15,17.25ZM143.67,28.7,154.11,14V33.85h-2.86V22.69L143.67,33.4l-7.58-10.71V33.85h-2.86V14Zm32.6-14.52v2.61H167v5.94h7v2.61h-7v5.94h9.29V33.9H164.13V14.17Zm33.52,0h4.8v2.6h-5.7v17H206v-17h-5.7v-2.6h9.46Zm25.09.57A11.21,11.21,0,0,1,238.4,17a10,10,0,0,1,2.4,3.22,9.52,9.52,0,0,1,0,7.66,9.81,9.81,0,0,1-2.4,3.22,10.91,10.91,0,0,1-3.52,2.19,12.27,12.27,0,0,1-8.31,0,10.64,10.64,0,0,1-3.5-2.19,9.5,9.5,0,0,1-2.38-3.23,9.61,9.61,0,0,1,0-7.63A10,10,0,0,1,223.07,17a10.94,10.94,0,0,1,3.5-2.21,12.27,12.27,0,0,1,8.31,0Zm-7.21,2.47a8.17,8.17,0,0,0-2.56,1.61,7.25,7.25,0,0,0-1.75,2.36,6.82,6.82,0,0,0-.57,2.8,6.7,6.7,0,0,0,.57,2.8,7,7,0,0,0,1.75,2.36,7.41,7.41,0,0,0,2.56,1.6,8.6,8.6,0,0,0,3.06.54,8.44,8.44,0,0,0,3-.54,8,8,0,0,0,2.57-1.6,7.25,7.25,0,0,0,1.75-2.36,6.48,6.48,0,0,0,.6-2.8,6.6,6.6,0,0,0-.6-2.8,7.84,7.84,0,0,0-1.74-2.36,8.1,8.1,0,0,0-5.62-2.15A8.6,8.6,0,0,0,227.68,17.25ZM277,28.7,287.4,14V33.85h-2.86V22.69L277,33.4l-7.58-10.71V33.85h-2.86V14Zm22.81-14.48,4,6.94.79,1.39.79-1.39,4-6.94h3.23L306,25.16l-.1.4v8.29h-2.83V25.55l-.11-.4-6.45-10.94Zm47.6-.11a12.88,12.88,0,0,1,2.18.18,11.05,11.05,0,0,1,2,.59,13.72,13.72,0,0,1,1.87.94q.52.33.95.65l-2.05,1.89a8.14,8.14,0,0,0-1.91-1.07,8.44,8.44,0,0,0-3-.54,8.56,8.56,0,0,0-3,.54,8.29,8.29,0,0,0-2.56,1.61,7.24,7.24,0,0,0-1.74,2.36h0a7.14,7.14,0,0,0,0,5.61,7.29,7.29,0,0,0,1.75,2.35,7.41,7.41,0,0,0,2.56,1.6,8.56,8.56,0,0,0,3,.54,8.67,8.67,0,0,0,3.06-.54,7.33,7.33,0,0,0,1.91-1.06l2,1.89a11.08,11.08,0,0,1-.95.65,10.78,10.78,0,0,1-1.87.94,10.25,10.25,0,0,1-2,.58,12.19,12.19,0,0,1-6.33-.53,10.64,10.64,0,0,1-3.5-2.19,9.5,9.5,0,0,1-2.38-3.23,9.61,9.61,0,0,1,0-7.63A10,10,0,0,1,339.73,17a10.94,10.94,0,0,1,3.5-2.21,11.27,11.27,0,0,1,3-.67ZM371.76,34l-9.06-19.8h3l6.09,13.52,6.1-13.52h3Z" transform="translate(-4.46 -11.17)"/></svg>