<svg id="Layer_1" data-name="Layer 1" xmlns="http://www.w3.org/2000/svg" viewBox="0 0 1029.13 66.91"><defs><style>.cls-1{fill:none;stroke:#fff;stroke-miterlimit:10;stroke-width:4px;}</style></defs><title>subtitle</title><path class="cls-1" d="M13.8,10.79,27.16,44.31,38.87,12.63,50.54,44.31,63.86,10.79h8.42L50.58,65.24,38.71,32.58,27.08,65.17,5.42,10.79Zm116.58-.11v7.13H105V34h19v7.13H105V57.35h25.34v7.13H97.25V10.68Zm32.76.11V57.28h25.34v7.06H155.35V10.79Zm69.62-.29a35.15,35.15,0,0,1,6,.5,30.2,30.2,0,0,1,5.52,1.62,37.41,37.41,0,0,1,5.09,2.56q1.41.9,2.58,1.76l-5.6,5.15a22.17,22.17,0,0,0-5.21-2.92,23,23,0,0,0-8.26-1.48,23.34,23.34,0,0,0-8.3,1.48,22.6,22.6,0,0,0-7,4.39A19.76,19.76,0,0,0,212.83,30h0a19.46,19.46,0,0,0,0,15.3,19.88,19.88,0,0,0,4.78,6.41,20.21,20.21,0,0,0,7,4.36,23.34,23.34,0,0,0,8.3,1.48,23.66,23.66,0,0,0,8.34-1.48,20,20,0,0,0,5.21-2.88L252,58.36a30.38,30.38,0,0,1-2.58,1.76,29.44,29.44,0,0,1-5.09,2.56,28,28,0,0,1-5.52,1.58,33.25,33.25,0,0,1-17.27-1.44,29,29,0,0,1-9.56-6,25.92,25.92,0,0,1-6.5-8.82,24.59,24.59,0,0,1-2.15-10.41,24.75,24.75,0,0,1,2.15-10.41,27.24,27.24,0,0,1,6.5-8.86,29.84,29.84,0,0,1,9.56-6,30.74,30.74,0,0,1,8.15-1.84Zm77,1.84a30.57,30.57,0,0,1,9.6,6,27.27,27.27,0,0,1,6.54,8.79,25.1,25.1,0,0,1,2.19,10.44,24.94,24.94,0,0,1-2.19,10.44,26.76,26.76,0,0,1-6.54,8.79,29.75,29.75,0,0,1-9.6,6,33.46,33.46,0,0,1-22.68,0,29,29,0,0,1-9.56-6A25.91,25.91,0,0,1,271,48a24.59,24.59,0,0,1-2.15-10.41A24.75,24.75,0,0,1,271,27.21a27.22,27.22,0,0,1,6.5-8.86,29.85,29.85,0,0,1,9.56-6,33.46,33.46,0,0,1,22.68,0Zm-19.66,6.73a22.28,22.28,0,0,0-7,4.39,19.79,19.79,0,0,0-4.78,6.45,18.61,18.61,0,0,0-1.57,7.63,18.29,18.29,0,0,0,1.57,7.63,19.06,19.06,0,0,0,4.78,6.45,20.22,20.22,0,0,0,7,4.36,23.45,23.45,0,0,0,8.34,1.48A23,23,0,0,0,306.69,56a21.69,21.69,0,0,0,7-4.36,19.79,19.79,0,0,0,4.78-6.45,17.69,17.69,0,0,0,1.65-7.63,18,18,0,0,0-1.65-7.63,21.38,21.38,0,0,0-4.74-6.45,22.08,22.08,0,0,0-15.32-5.87A23.45,23.45,0,0,0,290.09,19.07Zm91.43,31.22L410,10.21V64.34H402.2V33.91l-20.68,29.2-20.68-29.2V64.34H353V10.21Zm88.93-39.61v7.13H445.1V34h19v7.13h-19V57.35h25.34v7.13H437.31V10.68Zm91.42.11h13.08v7.09H559.4V64.34H551.6V17.88H536V10.79h25.81Zm68.45,1.55a30.57,30.57,0,0,1,9.6,6,27.27,27.27,0,0,1,6.54,8.79,25.1,25.1,0,0,1,2.19,10.44,24.94,24.94,0,0,1-2.19,10.44,26.76,26.76,0,0,1-6.54,8.79,29.75,29.75,0,0,1-9.6,6,33.46,33.46,0,0,1-22.68,0,29,29,0,0,1-9.56-6,25.92,25.92,0,0,1-6.5-8.82,24.61,24.61,0,0,1-2.15-10.41,24.76,24.76,0,0,1,2.15-10.41,27.24,27.24,0,0,1,6.5-8.86,29.83,29.83,0,0,1,9.56-6,33.46,33.46,0,0,1,22.68,0Zm-19.66,6.73a22.28,22.28,0,0,0-7,4.39,19.78,19.78,0,0,0-4.78,6.45,18.6,18.6,0,0,0-1.57,7.63,18.27,18.27,0,0,0,1.57,7.63,19.06,19.06,0,0,0,4.78,6.45,20.22,20.22,0,0,0,7,4.36A23.45,23.45,0,0,0,619,57.46,23,23,0,0,0,627.25,56a21.69,21.69,0,0,0,7-4.36A19.79,19.79,0,0,0,639,45.18a17.69,17.69,0,0,0,1.65-7.63A18,18,0,0,0,639,29.91a21.38,21.38,0,0,0-4.74-6.45A22.08,22.08,0,0,0,619,17.59,23.45,23.45,0,0,0,610.65,19.07ZM745.07,50.29l28.48-40.08V64.34h-7.79V33.91l-20.68,29.2-20.68-29.2V64.34h-7.79V10.21Zm62.21-39.5,10.81,18.94,2.15,3.78,2.15-3.78,10.81-18.94H842L824.4,40.64l-.27,1.08V64.34h-7.72V41.72l-.31-1.08L798.51,10.79Zm129.84-.29a35.14,35.14,0,0,1,6,.5,30.15,30.15,0,0,1,5.52,1.62,37.41,37.41,0,0,1,5.09,2.56q1.41.9,2.58,1.76l-5.6,5.15a22.2,22.2,0,0,0-5.21-2.92,23,23,0,0,0-8.26-1.48,23.34,23.34,0,0,0-8.3,1.48,22.62,22.62,0,0,0-7,4.39A19.76,19.76,0,0,0,917.18,30h0a19.48,19.48,0,0,0,0,15.3,19.88,19.88,0,0,0,4.78,6.41,20.21,20.21,0,0,0,7,4.36,23.34,23.34,0,0,0,8.3,1.48,23.66,23.66,0,0,0,8.34-1.48,20,20,0,0,0,5.21-2.88l5.56,5.15a30.23,30.23,0,0,1-2.58,1.76,29.4,29.4,0,0,1-5.09,2.56,28,28,0,0,1-5.52,1.58,33.25,33.25,0,0,1-17.27-1.44,29,29,0,0,1-9.56-6,25.92,25.92,0,0,1-6.5-8.82,24.61,24.61,0,0,1-2.15-10.41,24.76,24.76,0,0,1,2.15-10.41,27.24,27.24,0,0,1,6.5-8.86,29.83,29.83,0,0,1,9.56-6A30.74,30.74,0,0,1,934,10.5Zm66.52,54.3-24.72-54H987l16.61,36.88,16.65-36.87h8.23Z" transform="translate(-2.47 -3.94)"/></svg>