<svg id="Layer_1" data-name="Layer 1" xmlns="http://www.w3.org/2000/svg" viewBox="0 0 323.55 18.36"><defs><style>.cls-1{fill:#fff;}</style></defs><title>subtitle_phone</title><path class="cls-1" d="M83.22,17.17l1.85,1.72a10.13,10.13,0,0,1-.86.59,9.82,9.82,0,0,1-1.7.85,9.34,9.34,0,0,1-1.84.53,11.09,11.09,0,0,1-5.76-.48,9.67,9.67,0,0,1-3.19-2,8.65,8.65,0,0,1-2.17-2.94A8.2,8.2,0,0,1,68.83,12a8.26,8.26,0,0,1,.72-3.47,9.09,9.09,0,0,1,2.17-3,10,10,0,0,1,3.19-2,10.25,10.25,0,0,1,2.72-.61h1a11.72,11.72,0,0,1,2,.17,10.07,10.07,0,0,1,1.84.54,12.48,12.48,0,0,1,1.7.85q.47.3.86.59L83.18,6.8a7.4,7.4,0,0,0-1.74-1,7.67,7.67,0,0,0-2.76-.49,7.79,7.79,0,0,0-2.77.49,7.54,7.54,0,0,0-2.33,1.46A6.59,6.59,0,0,0,72,9.44a6.49,6.49,0,0,0,0,5.1,6.63,6.63,0,0,0,1.59,2.14,6.74,6.74,0,0,0,2.33,1.45,7.79,7.79,0,0,0,2.77.49,7.89,7.89,0,0,0,2.78-.49A6.67,6.67,0,0,0,83.22,17.17Zm-65.35-3L14,3.64,10.07,14.21,5.61,3H2.82L10,21.17,13.92,10.3l4,10.89L25.12,3H22.31Zm15.58,6.73h11V18.56H36V13.15h6.34V10.77H36V5.37H44.5V3H33.45ZM55.43,3h-2.6V20.89H63.88V18.53H55.43Zm54.29,5.45a8.37,8.37,0,0,1,.73,3.48,8.32,8.32,0,0,1-.73,3.48,8.93,8.93,0,0,1-2.18,2.93,9.92,9.92,0,0,1-3.2,2,11.16,11.16,0,0,1-7.57,0,9.67,9.67,0,0,1-3.19-2,8.64,8.64,0,0,1-2.17-2.94A8.2,8.2,0,0,1,90.69,12a8.26,8.26,0,0,1,.72-3.46,9.08,9.08,0,0,1,2.17-3,10,10,0,0,1,3.19-2,11.16,11.16,0,0,1,7.57,0h0a10.2,10.2,0,0,1,3.2,2A9.1,9.1,0,0,1,109.72,8.48ZM107.79,12a6,6,0,0,0-.55-2.55,7.13,7.13,0,0,0-1.58-2.15,7.37,7.37,0,0,0-5.11-2,7.82,7.82,0,0,0-2.78.49h0a7.43,7.43,0,0,0-2.33,1.46,6.6,6.6,0,0,0-1.59,2.15A6.21,6.21,0,0,0,93.32,12a6.1,6.1,0,0,0,.52,2.55,6.36,6.36,0,0,0,1.59,2.15,6.74,6.74,0,0,0,2.33,1.45,7.82,7.82,0,0,0,2.78.49,7.67,7.67,0,0,0,2.75-.49,7.23,7.23,0,0,0,2.33-1.45,6.6,6.6,0,0,0,1.59-2.15A5.9,5.9,0,0,0,107.79,12Zm39.09,9h11.05V18.56h-8.45V13.15h6.34V10.77h-6.34V5.37h8.46V3H146.88ZM118.76,2.83V20.89h2.62V10.74l6.9,9.74,6.9-9.74V20.89h2.6V2.83l-9.5,13.37Zm85.91,5.87a8,8,0,0,1,.7,3.33,7.94,7.94,0,0,1-.7,3.33,8.52,8.52,0,0,1-2.08,2.8,9.48,9.48,0,0,1-3.06,1.91,10.66,10.66,0,0,1-7.23,0,9.24,9.24,0,0,1-3-1.91,8.26,8.26,0,0,1-2.07-2.81A7.84,7.84,0,0,1,186.5,12a7.89,7.89,0,0,1,.68-3.32,8.68,8.68,0,0,1,2.07-2.82,9.5,9.5,0,0,1,3-1.91,10.66,10.66,0,0,1,7.23,0h0a9.74,9.74,0,0,1,3.06,1.91A8.69,8.69,0,0,1,204.67,8.71ZM202.82,12a5.73,5.73,0,0,0-.53-2.43,6.81,6.81,0,0,0-1.51-2.05,7,7,0,0,0-4.86-1.87,7.47,7.47,0,0,0-2.66.47h0A7.1,7.1,0,0,0,191,7.54a6.3,6.3,0,0,0-1.52,2.05A5.92,5.92,0,0,0,189,12a5.82,5.82,0,0,0,.5,2.43A6.07,6.07,0,0,0,191,16.51a6.44,6.44,0,0,0,2.23,1.39,7.47,7.47,0,0,0,2.65.47,7.33,7.33,0,0,0,2.63-.47,6.91,6.91,0,0,0,2.23-1.39,6.3,6.3,0,0,0,1.51-2.06A5.64,5.64,0,0,0,202.82,12ZM177.7,3.5h-8.22V5.76h5v14.8h2.48V5.76h5V3.5H177.7ZM227,3.32V20.56h2.48V10.87l6.59,9.3,6.59-9.3v9.69h2.48V3.32l-9.07,12.77Zm96.73.19-5.3,11.75L313.15,3.5h-2.57l7.87,17.2,7.92-17.2Zm-63,6-.68,1.2-.68-1.2-3.44-6H253.1l5.6,9.51.1.34v7.21h2.46V13.35l.09-.34L267,3.5h-2.8ZM300,17.93a7.54,7.54,0,0,1-2.66.47,7.44,7.44,0,0,1-2.64-.47,6.44,6.44,0,0,1-2.23-1.39,6.33,6.33,0,0,1-1.52-2,6.21,6.21,0,0,1,0-4.87,6.29,6.29,0,0,1,1.52-2.05,7.21,7.21,0,0,1,2.23-1.4,7.44,7.44,0,0,1,2.64-.47,7.33,7.33,0,0,1,2.63.47,7.07,7.07,0,0,1,1.66.93l1.78-1.64q-.37-.27-.82-.56a11.92,11.92,0,0,0-1.62-.82,9.6,9.6,0,0,0-1.76-.52,11.2,11.2,0,0,0-1.91-.16h-1a9.79,9.79,0,0,0-2.58.57,9.5,9.5,0,0,0-3,1.91,8.68,8.68,0,0,0-2.07,2.82,7.89,7.89,0,0,0-.68,3.32,7.84,7.84,0,0,0,.68,3.32,8.26,8.26,0,0,0,2.07,2.81,9.24,9.24,0,0,0,3,1.91,10.59,10.59,0,0,0,5.5.46,8.92,8.92,0,0,0,1.76-.5,9.37,9.37,0,0,0,1.62-.82,9.62,9.62,0,0,0,.82-.56L301.62,17A6.37,6.37,0,0,1,300,17.93Z" transform="translate(-2.82 -2.83)"/></svg>