<svg id="Layer_1" data-name="Layer 1" xmlns="http://www.w3.org/2000/svg" viewBox="0 0 375.41 38.38"><defs><style>.cls-1{fill:#fff;stroke:#fff;stroke-miterlimit:10;stroke-width:1.81px;}</style></defs><title>title__tablet</title><path class="cls-1" d="M12.46,4.39V20H29.9V4.39h5.21v36H29.9V24.76H12.46v15.6H7.25v-36Zm57.22-.07V9.11h-17V20H65.42v4.79H52.66V35.67h17v4.79H47.42V4.32Zm16,.07V35.62h17v4.74H80.42v-36Zm33,0V35.62h17v4.74H113.41v-36Zm48.38,1a20.53,20.53,0,0,1,6.44,4.06,18.32,18.32,0,0,1,4.39,5.9,16.86,16.86,0,0,1,1.47,7,16.75,16.75,0,0,1-1.47,7,18,18,0,0,1-4.39,5.9,20,20,0,0,1-6.44,4,22.46,22.46,0,0,1-15.23,0,19.5,19.5,0,0,1-6.42-4A17.41,17.41,0,0,1,141,29.4a16.53,16.53,0,0,1-1.45-7,16.64,16.64,0,0,1,1.45-7,18.29,18.29,0,0,1,4.37-6,20,20,0,0,1,6.42-4,22.46,22.46,0,0,1,15.23,0ZM153.82,10a15,15,0,0,0-4.68,3,13.29,13.29,0,0,0-3.21,4.33,12.5,12.5,0,0,0-1.05,5.13,12.29,12.29,0,0,0,1.05,5.13,12.8,12.8,0,0,0,3.21,4.33,13.58,13.58,0,0,0,4.68,2.93,15.75,15.75,0,0,0,5.6,1,15.46,15.46,0,0,0,5.55-1,14.56,14.56,0,0,0,4.71-2.93,13.28,13.28,0,0,0,3.21-4.33,11.88,11.88,0,0,0,1.1-5.13,12.09,12.09,0,0,0-1.1-5.13,14.37,14.37,0,0,0-3.18-4.33A14.83,14.83,0,0,0,159.42,9,15.75,15.75,0,0,0,153.82,10Zm74.85-5.56h8.79V9.16H227v31.2h-5.23V9.16H211.33V4.39h17.34Zm24.73,0V20h17.44V4.39H276v36h-5.21V24.76H253.4v15.6h-5.21v-36Zm57.22-.07V9.11h-17V20h12.76v4.79H293.59V35.67h17v4.79H288.36V4.32Zm10.74.07h12.21a16.09,16.09,0,0,1,5.52.94,13.85,13.85,0,0,1,4.42,2.59,12,12,0,0,1,2.79,3.56,9.76,9.76,0,0,1,.84,4.23v1a9.49,9.49,0,0,1-.6,3.44,13.3,13.3,0,0,1-1.79,3.12,8.68,8.68,0,0,1-1.95,1.91,10.53,10.53,0,0,1-2.42,1.16l-1.84.68,1.08,1.55,8.26,11.78h-6.52l-8.92-12.6h-5.79v12.6h-5.26Zm13,18.55,0,0a7.55,7.55,0,0,0,2.81-.48A8.05,8.05,0,0,0,339.42,21a6.37,6.37,0,0,0,2.18-5,6.66,6.66,0,0,0-.5-2.61,7.84,7.84,0,0,0-1.66-2.18v0a7.38,7.38,0,0,0-2.84-1.5A12.14,12.14,0,0,0,333,9.13h-6.42V22.92h1.63l2,0h4.13ZM380.86,4.32V9.11h-17V20H376.6v4.79H363.84V35.67h17v4.79H358.6V4.32Z" transform="translate(-6.35 -3.2)"/></svg>