<svg id="Layer_1" data-name="Layer 1" xmlns="http://www.w3.org/2000/svg" viewBox="0 0 1033.18 104.75"><defs><style>.cls-1{fill:none;stroke:#fff;stroke-miterlimit:10;stroke-width:4px;}</style></defs><title>title</title><path class="cls-1" d="M22,8.47v43h48v-43H84.43v99.09H70.08v-43H22v43H7.69V8.47Zm157.62-.2V21.46H132.78v30h35.15V64.64H132.78v30h46.88v13.19h-61.3V8.27Zm44,.2v86h46.88v13.06h-61.3V8.47Zm90.88,0v86h46.88v13.06h-61.3V8.47Zm133.28,2.87a56.55,56.55,0,0,1,17.75,11.19,50.46,50.46,0,0,1,12.1,16.26,46.45,46.45,0,0,1,4.06,19.32,46.15,46.15,0,0,1-4.06,19.32,49.52,49.52,0,0,1-12.1,16.26,55,55,0,0,1-17.75,11.06,61.87,61.87,0,0,1-42,0,53.73,53.73,0,0,1-17.68-11.06,48,48,0,0,1-12-16.33,45.54,45.54,0,0,1-4-19.26,45.83,45.83,0,0,1,4-19.26,50.4,50.4,0,0,1,12-16.39,55.22,55.22,0,0,1,17.68-11.13,61.87,61.87,0,0,1,42,0ZM411.44,23.79a41.22,41.22,0,0,0-12.9,8.13,36.6,36.6,0,0,0-8.84,11.93A34.44,34.44,0,0,0,386.8,58a33.84,33.84,0,0,0,2.9,14.13A35.27,35.27,0,0,0,398.54,84a37.4,37.4,0,0,0,12.9,8.06,43.39,43.39,0,0,0,15.43,2.73,42.59,42.59,0,0,0,15.29-2.73,40.1,40.1,0,0,0,13-8.06A36.58,36.58,0,0,0,464,72.1,32.74,32.74,0,0,0,467,58a33.31,33.31,0,0,0-3-14.13,39.59,39.59,0,0,0-8.77-11.93,40.86,40.86,0,0,0-28.33-10.86A43.39,43.39,0,0,0,411.44,23.79ZM617.62,8.47h24.2V21.59H613.06v86H598.64v-86H569.87V8.47h47.75Zm68.13,0v43h48v-43h14.35v99.09H733.8v-43h-48v43H671.4V8.47Zm157.62-.2V21.46H796.49v30h35.14V64.64H796.49v30h46.88v13.19h-61.3V8.27Zm29.58.2h33.62a44.33,44.33,0,0,1,15.22,2.6A38.17,38.17,0,0,1,934,18.2,33.16,33.16,0,0,1,941.65,28,26.9,26.9,0,0,1,944,39.65v2.8a26.15,26.15,0,0,1-1.67,9.46,36.64,36.64,0,0,1-4.93,8.6A23.9,23.9,0,0,1,932,65.77a29,29,0,0,1-6.67,3.2l-5.07,1.87,3,4.26L946,107.55H928L903.46,72.84H887.52v34.72H873Zm35.8,51.11.07.07a20.79,20.79,0,0,0,7.75-1.33,22.18,22.18,0,0,0,6.16-4.2,17.54,17.54,0,0,0,6-13.79,18.34,18.34,0,0,0-1.38-7.2,21.59,21.59,0,0,0-4.57-6v-.07A20.34,20.34,0,0,0,915,22.93a33.45,33.45,0,0,0-9.86-1.4H887.44v38h4.49l5.43.07h11.38ZM1036.88,8.27V21.46H990v30h35.14V64.64H990v30h46.88v13.19h-61.3V8.27Z" transform="translate(-5.69 -5.67)"/></svg>