<svg id="Layer_1" data-name="Layer 1" xmlns="http://www.w3.org/2000/svg" viewBox="0 0 232.7 109.05"><defs><style>.cls-1{fill:#fff;}</style></defs><title>title_phone</title><path class="cls-1" d="M64.65,47.65h23v6.48H57.57V5.25H87.65v6.48h-23V26.45H81.91v6.47H64.65ZM33.83,26.46H10.27V5.35h-7V54h7V32.88h23.6V54h7V5.35H33.83Zm120-21.11h-7.08V54h30.09V47.57h-23Zm80.08,14.88a22.8,22.8,0,0,1,2,9.48,22.66,22.66,0,0,1-2,9.48,24.31,24.31,0,0,1-5.94,8,27,27,0,0,1-8.71,5.43,30.37,30.37,0,0,1-20.62,0A26.38,26.38,0,0,1,190,47.19a23.56,23.56,0,0,1-5.89-8,22.36,22.36,0,0,1-2-9.46,22.5,22.5,0,0,1,2-9.46,24.74,24.74,0,0,1,5.89-8,27.11,27.11,0,0,1,8.68-5.46,30.37,30.37,0,0,1,20.62,0h0A27.76,27.76,0,0,1,228,12.25,24.77,24.77,0,0,1,233.95,20.23Zm-5.22,9.43a16.35,16.35,0,0,0-1.47-6.94,19.44,19.44,0,0,0-4.31-5.86A20.06,20.06,0,0,0,209,11.54a21.3,21.3,0,0,0-7.59,1.33,20.24,20.24,0,0,0-6.33,4,18,18,0,0,0-4.34,5.86,16.91,16.91,0,0,0-1.42,6.95,16.61,16.61,0,0,0,1.42,6.94,17.31,17.31,0,0,0,4.34,5.83,18.36,18.36,0,0,0,6.33,4A21.3,21.3,0,0,0,209,47.73a20.91,20.91,0,0,0,7.51-1.34,19.69,19.69,0,0,0,6.38-4,18,18,0,0,0,4.34-5.84A16.07,16.07,0,0,0,228.73,29.66ZM109.25,5.35h-7.08V54h30.09V47.57h-23ZM109.13,114h30.09v-6.48h-23V92.8h17.25V86.33H116.21V71.6h23V65.12H109.13ZM85.41,86.33H61.85V65.22h-7v48.64h7.07V92.76H85.44v21.11h7V65.22h-7ZM5,65.22v6.44H19.08v42.22h7.08V71.66H40.28V65.22H5ZM178.45,97.93l11.16,15.93h-8.84l-12-17H160.9v17h-7.13l0-48.64h16.5a21.76,21.76,0,0,1,7.47,1.28,18.74,18.74,0,0,1,6,3.5,16.28,16.28,0,0,1,3.76,4.81,13.21,13.21,0,0,1,1.15,5.72V81.9a12.84,12.84,0,0,1-.82,4.64,18,18,0,0,1-2.42,4.22,11.73,11.73,0,0,1-2.65,2.58,14.24,14.24,0,0,1-3.27,1.57l-2.49.92Zm-3.28-8.24a10.89,10.89,0,0,0,3-2.06,8.61,8.61,0,0,0,2.95-6.77,9,9,0,0,0-.68-3.53,10.6,10.6,0,0,0-2.24-2.95v0a10,10,0,0,0-3.82-2,16.42,16.42,0,0,0-4.84-.69h-8.69V90.29h2.2l2.67,0h5.59l0,0A10.21,10.21,0,0,0,175.16,89.69Zm59.06-18.1V65.12H204.13V114h30.09v-6.48h-23V92.8h17.25V86.33H211.21V71.6Z" transform="translate(-3.24 -4.95)"/></svg>