<svg id="Layer_1" data-name="Layer 1" xmlns="http://www.w3.org/2000/svg" viewBox="0 0 1920 1080"><defs><style>.cls-1{fill:none;stroke:#fff;stroke-miterlimit:10;stroke-width:4px;}</style></defs><title>welcome_to_my_cv</title><path class="cls-1" d="M494.8,540.79l13.36,33.53,11.71-31.69,11.67,31.69,13.32-33.53h8.42l-21.7,54.45-11.87-32.66-11.63,32.59-21.66-54.38Zm116.58-.11v7.13H586V564h19v7.13H586v16.21h25.34v7.13H578.25v-53.8Zm32.76.11v46.49h25.34v7.06H636.35V540.79Zm69.62-.29a35.15,35.15,0,0,1,6,.5,30.2,30.2,0,0,1,5.52,1.62,37.41,37.41,0,0,1,5.09,2.56q1.41.9,2.58,1.76l-5.6,5.15a22.17,22.17,0,0,0-5.21-2.92,23,23,0,0,0-8.26-1.48,23.34,23.34,0,0,0-8.3,1.48,22.6,22.6,0,0,0-7,4.39,19.76,19.76,0,0,0-4.74,6.45h0a19.46,19.46,0,0,0,0,15.3,19.88,19.88,0,0,0,4.78,6.41,20.21,20.21,0,0,0,7,4.36,23.34,23.34,0,0,0,8.3,1.48,23.66,23.66,0,0,0,8.34-1.48,20,20,0,0,0,5.21-2.88l5.56,5.15a30.38,30.38,0,0,1-2.58,1.76,29.44,29.44,0,0,1-5.09,2.56,28,28,0,0,1-5.52,1.58,33.25,33.25,0,0,1-17.27-1.44,29,29,0,0,1-9.56-6,25.92,25.92,0,0,1-6.5-8.82,26.21,26.21,0,0,1,0-20.81,27.24,27.24,0,0,1,6.5-8.86,29.84,29.84,0,0,1,9.56-6,30.74,30.74,0,0,1,8.15-1.84Zm77,1.84a30.57,30.57,0,0,1,9.6,6,27.27,27.27,0,0,1,6.54,8.79,26,26,0,0,1,0,20.89,26.76,26.76,0,0,1-6.54,8.79,29.75,29.75,0,0,1-9.6,6,33.46,33.46,0,0,1-22.68,0,29,29,0,0,1-9.56-6A25.91,25.91,0,0,1,752,578a26.21,26.21,0,0,1,0-20.81,27.22,27.22,0,0,1,6.5-8.86,29.85,29.85,0,0,1,9.56-6,33.46,33.46,0,0,1,22.68,0Zm-19.66,6.73a22.28,22.28,0,0,0-7,4.39,19.79,19.79,0,0,0-4.78,6.45,18.61,18.61,0,0,0-1.57,7.63,18.29,18.29,0,0,0,1.57,7.63,19.06,19.06,0,0,0,4.78,6.45,20.22,20.22,0,0,0,7,4.36,23.45,23.45,0,0,0,8.34,1.48,23,23,0,0,0,8.26-1.48,21.69,21.69,0,0,0,7-4.36,19.79,19.79,0,0,0,4.78-6.45,17.69,17.69,0,0,0,1.65-7.63,18,18,0,0,0-1.65-7.63,21.38,21.38,0,0,0-4.74-6.45,22.08,22.08,0,0,0-15.32-5.87A23.45,23.45,0,0,0,771.09,549.07Zm91.43,31.22L891,540.21v54.12H883.2V563.91l-20.68,29.2-20.68-29.2v30.43H834V540.21Zm88.93-39.61v7.13H926.1V564h19v7.13h-19v16.21h25.34v7.13H918.31v-53.8Zm91.42.11h13.08v7.09H1040.4v46.45h-7.79V547.88H1017v-7.09h25.81Zm68.45,1.55a30.57,30.57,0,0,1,9.6,6,27.27,27.27,0,0,1,6.54,8.79,26,26,0,0,1,0,20.89,26.76,26.76,0,0,1-6.54,8.79,29.75,29.75,0,0,1-9.6,6,33.46,33.46,0,0,1-22.68,0,29,29,0,0,1-9.56-6,25.92,25.92,0,0,1-6.5-8.82,26.21,26.21,0,0,1,0-20.81,27.24,27.24,0,0,1,6.5-8.86,29.83,29.83,0,0,1,9.56-6,33.46,33.46,0,0,1,22.68,0Zm-19.66,6.73a22.28,22.28,0,0,0-7,4.39,19.78,19.78,0,0,0-4.78,6.45,18.6,18.6,0,0,0-1.57,7.63,18.27,18.27,0,0,0,1.57,7.63,19.06,19.06,0,0,0,4.78,6.45,20.22,20.22,0,0,0,7,4.36,23.45,23.45,0,0,0,8.34,1.48,23,23,0,0,0,8.26-1.48,21.69,21.69,0,0,0,7-4.36,19.79,19.79,0,0,0,4.78-6.45,17.69,17.69,0,0,0,1.65-7.63,18,18,0,0,0-1.65-7.63,21.38,21.38,0,0,0-4.74-6.45,22.08,22.08,0,0,0-15.32-5.87A23.45,23.45,0,0,0,1091.65,549.07Zm134.42,31.22,28.48-40.08v54.12h-7.79V563.91l-20.68,29.2-20.68-29.2v30.43h-7.79V540.21Zm62.21-39.5,10.81,18.94,2.15,3.78,2.15-3.78,10.81-18.94H1323l-17.63,29.85-.27,1.08v22.62h-7.72V571.72l-.31-1.08-17.59-29.85Zm129.84-.29a35.14,35.14,0,0,1,6,.5,30.15,30.15,0,0,1,5.52,1.62,37.41,37.41,0,0,1,5.09,2.56q1.41.9,2.58,1.76l-5.6,5.15a22.2,22.2,0,0,0-5.21-2.92,23,23,0,0,0-8.26-1.48,23.34,23.34,0,0,0-8.3,1.48,22.62,22.62,0,0,0-7,4.39,19.76,19.76,0,0,0-4.74,6.45h0a19.48,19.48,0,0,0,0,15.3,19.88,19.88,0,0,0,4.78,6.41,20.21,20.21,0,0,0,7,4.36,23.34,23.34,0,0,0,8.3,1.48,23.66,23.66,0,0,0,8.34-1.48,20,20,0,0,0,5.21-2.88l5.56,5.15a30.23,30.23,0,0,1-2.58,1.76,29.4,29.4,0,0,1-5.09,2.56,28,28,0,0,1-5.52,1.58,33.25,33.25,0,0,1-17.27-1.44,29,29,0,0,1-9.56-6,25.92,25.92,0,0,1-6.5-8.82,26.21,26.21,0,0,1,0-20.81,27.24,27.24,0,0,1,6.5-8.86,29.83,29.83,0,0,1,9.56-6,30.74,30.74,0,0,1,8.15-1.84Zm66.52,54.3-24.72-54H1468l16.61,36.88,16.65-36.87h8.23Z"/></svg>