<svg xmlns="http://www.w3.org/2000/svg" viewBox="0 0 487.33 332.37"><defs><style>.cls-1{fill:#284a90;}.cls-2{fill:#aedfe4;}.cls-3{fill:#508ec1;}.cls-4{fill:#fff;}.cls-5{fill:#1d283c;}.cls-6{opacity:0.2;}.cls-7{fill:#869ec2;}</style></defs><title>Asset 27</title><g id="Layer_2" data-name="Layer 2"><g id="Layer_1-2" data-name="Layer 1"><path class="cls-1" d="M481.52,67.79a52.08,52.08,0,0,1-38,7.23c-1.38-.26-2.74-.58-4.09-1a73.48,73.48,0,0,0-45.22,5.06c-3.65-1.29-2.67-8.12-13.41-33.7s-72-37.8-72.65-44.51S291,26,303.27,40.95c13.88,22.22,38.8,22,46.93,36.9.32.49.66,1,1,1.47a53.1,53.1,0,0,1,8.35,27.47c0,1.72,0,3.42-.13,5.12a53.6,53.6,0,0,1-7.83,24.25,52.39,52.39,0,0,1-7.1,9.1v0l-.79.78.34-.12,0,.35-.74.27c-2.41,2.32-20.21,17.19-27.31,21.72a116.53,116.53,0,0,1-27.89,13A112.5,112.5,0,0,1,277,184.08a145.58,145.58,0,0,1-79.83-3q-3.64-1.18-7.23-2.56c-11.22-5.09-53.91-12.54-70.27-9.4-24,3.76-48.6,8.57-70.58,22.56a146.32,146.32,0,0,0-19.63,14.95A144.32,144.32,0,0,0,0,243.76q4,4.2,8.18,8.09a176.37,176.37,0,0,0,138.47,45.85,89.78,89.78,0,0,0,118.24,21.14,107.42,107.42,0,0,0-54.78-34.6,193.19,193.19,0,0,0,55.11-15.32q8.17-3.63,16.11-8.09,4.73-2.65,9.38-5.61a196.81,196.81,0,0,0,16.59-11.8,193.51,193.51,0,0,0,40.42-43.66q2.36-3.5,4.54-7.08c2.46-4,4.76-8.11,6.9-12.27q2.71-5.25,5.1-10.64a144.65,144.65,0,0,0,11.31-21.21s0,0,0,0q.65-1.71,1.42-3.39a57.2,57.2,0,0,1,50.47-33.49,56,56,0,0,1,8.39.39A53.58,53.58,0,0,0,475.3,92.65c.38-.46.76-.93,1.12-1.4a53.53,53.53,0,0,0,10.9-27.74A51.9,51.9,0,0,1,481.52,67.79Z"/><path class="cls-2" d="M.39,244.28l0,0q4,4.2,8.18,8.09A176.37,176.37,0,0,0,147,298.27l.28.35-.12-.2A129.16,129.16,0,0,0,.39,244.28Z"/><path class="cls-2" d="M255.62,309.3a106.91,106.91,0,0,1,9.1,9.53,89.78,89.78,0,0,1-117.07-19.66A89.81,89.81,0,0,0,255.62,309.3Z"/><path class="cls-2" d="M487.33,63.51a53.53,53.53,0,0,1-10.9,27.74c-.36.47-.74.94-1.12,1.4A53.58,53.58,0,0,1,435.85,112a56,56,0,0,0-8.39-.39A57.27,57.27,0,0,0,377,145.14q-.77,1.67-1.42,3.39s0,0,0,0a144.65,144.65,0,0,1-11.31,21.21q-2.38,5.39-5.1,10.64c-2.14,4.16-4.44,8.26-6.9,12.27q-2.19,3.57-4.54,7.08a193.5,193.5,0,0,1-40.42,43.66,196.79,196.79,0,0,1-16.59,11.8q-4.64,3-9.38,5.61-7.93,4.46-16.11,8.09a192.35,192.35,0,0,1-41.74,13.18l-1.14.22c-.19,0-.39.08-.58.11q-5.81,1.11-11.66,1.81l-9-9.58a193.18,193.18,0,0,0,55.11-15.32q8.17-3.63,16.11-8.09,4.73-2.65,9.38-5.61a196.79,196.79,0,0,0,16.59-11.8,193.51,193.51,0,0,0,40.42-43.66q2.36-3.5,4.54-7.08c2.46-4,4.76-8.11,6.9-12.27q2.71-5.25,5.1-10.64A144.65,144.65,0,0,0,366.55,139s0,0,0,0q.65-1.71,1.42-3.39a57.2,57.2,0,0,1,50.47-33.49,56,56,0,0,1,8.39.39,53.58,53.58,0,0,0,39.46-19.39c.38-.46.76-.93,1.12-1.4a52.83,52.83,0,0,0,5.9-9.6,52.46,52.46,0,0,0,8.22-4.27A51.91,51.91,0,0,0,487.33,63.51Z"/><path class="cls-3" d="M223.48,282.09h0l-1.14.21Z"/><circle class="cls-4" cx="52.91" cy="238.59" r="9.04" transform="translate(-119.83 65.71) rotate(-32.47)"/><circle class="cls-5" cx="52.91" cy="238.59" r="6.39" transform="matrix(0.84, -0.54, 0.54, 0.84, -119.83, 65.71)"/><circle class="cls-3" cx="52.91" cy="238.59" r="3.51" transform="translate(-119.83 65.71) rotate(-32.47)"/><circle class="cls-4" cx="54.51" cy="235.71" r="1.89" transform="translate(-118.03 66.12) rotate(-32.47)"/><g class="cls-6"><path class="cls-7" d="M83.61,185.22A39.3,39.3,0,0,0,59.33,195.6a5.37,5.37,0,0,0-1.81,2.62c-.4,1.83,1.16,3.63,3,4.17A10.3,10.3,0,0,0,66,202c13.46-3.61,25.64-11,39.07-14.75a75.52,75.52,0,0,1,23.57-2.7c1.75.08,4-.08,4.56-1.72a2.71,2.71,0,0,0-1-2.91,7,7,0,0,0-3.06-1.16c-6.2-1.17-12.58-.76-18.87-.15q-10.19,1-20.3,2.63c-10.3,1.68-21,4.09-28.94,10.86a9.22,9.22,0,0,0-3.18,4.26c-.49,1.73.13,3.89,1.77,4.62"/></g></g></g></svg>