<svg xmlns="http://www.w3.org/2000/svg" viewBox="0 0 507.41 224.75"><defs><style>.cls-1{fill:#19597a;}.cls-2,.cls-7{fill:#497072;}.cls-10,.cls-2{opacity:0.3;}.cls-3{fill:#27a3b7;}.cls-4{fill:#1977ad;}.cls-5{fill:#42b6cf;}.cls-6{fill:#aedfe4;}.cls-7{opacity:0.5;}.cls-8{fill:#0f3442;}.cls-9{fill:#fff;}.cls-10{fill:#14a4c4;}</style></defs><title>Asset 29</title><g id="Layer_2" data-name="Layer 2"><g id="Layer_1-2" data-name="Layer 1"><path class="cls-1" d="M325.76,35.79s10.3-12.46,10.89-18c.39-8.11-4.24-5.49-5.71-10.26.06-2.34,1.35-4.15,5-5.73a22.16,22.16,0,0,1,15.65-.69c6.34,1.93,41.47,28.71,41.47,28.71l-35.33,4.56Z"/><path class="cls-2" d="M340.41,4.28C345.87,5.95,372.62,26,380,31.56l13.53-1.74S358.39,3,352.05,1.1a22.16,22.16,0,0,0-15.65.69,13.34,13.34,0,0,0-2.53,1.4A24.51,24.51,0,0,1,340.41,4.28Z"/><path class="cls-3" d="M408,118s8.41,7.71,10.25,11.06c2.38,11.41-16,28.73-11.31,33.15,8.31,4,18.5-6.07,18.5-6.07,10.35-8.87,17.56-20.24,22.69-33.28L451,107.95l-48,4.61Z"/><path class="cls-2" d="M441.54,108.88l-2.11,11c-5.13,13-12.34,24.41-22.69,33.28a29.59,29.59,0,0,1-10.07,6.29,2.94,2.94,0,0,0,.71,2.71c8.31,4,18.5-6.07,18.5-6.07,10.35-8.87,17.56-20.24,22.69-33.28l2.85-14.89Z"/><path class="cls-4" d="M506.41,85.67c-1.58-11.48-7.87-21.85-20.86-30.61-32.61-21.32-73.33-35.35-137.86-28C313.39,32.59,275.3,56.91,244,94.44c-9.66,10.66-38.23,47-42.13,54.8-14.22-6.38-32.7-9-42.66-6.08-11.36,3.38-22.51,17.25-20.23,20.78s11.27-2.62,16.84-1.12,19.55,14.16,30,21.71,31,15.53,33.16,19.94-.32,9.77,4.76,14.3,10.88-22.87,10.88-22.87c2-11.94-2.37-25.65-20.9-39.51,3.6-5.24,27.75-38.76,57.68-42.38,33.11-6.83,53.32,9,107.56,7.66,15.24-.67,62.93-9.86,71.65-6.65,11.75,2.61,34.12,16.14,38.49,17s11.22.8,15.21-5.26c3.1-6.27.62-9.39-3.82-15.85C506.16,102.85,509.07,94.51,506.41,85.67Z"/><path class="cls-5" d="M505.42,120.39c.1-1.59-2.09-5.49-4.91-9.44,0,0-10.5-11.05-18.47-16s-19.48-16.78-38.13-15.88c-12.8-.94-48.91,19.41-76.53,20.67S301,86.9,283.62,89.7c-13,2-25.3,5.12-49.35,32.95-10.17,13.46-21.55,33.48-21.55,33.48l1.53.6c4.85-6.9,28.34-38.23,57.22-41.72,33.11-6.83,53.32,9,107.56,7.66,15.24-.67,62.93-9.86,71.65-6.65,11.75,2.61,34.12,16.14,38.49,17a18.73,18.73,0,0,0,9-.42l.65-.24.13-.05a12,12,0,0,0,5.38-4.54,12.7,12.7,0,0,0,1.3-4A10.28,10.28,0,0,0,505.42,120.39Z"/><path class="cls-6" d="M426.14,83.26s-26.69,19-55.76,18.13-36.72-9.75-37.21-11.54c-1.43-5.26,24.52,1.43,35.41-2.89s16.46-8.9,22.17-11.82,10.92-2,18-.79S426.14,83.26,426.14,83.26Z"/><path class="cls-2" d="M417.24,77.38c-1.7,1.19-27.57,18.93-55.66,18.07-13-.4-21.67-2.38-27.38-4.62,2.21,2.92,11.27,9.77,36.65,10.55,29.07.89,55.76-18.13,55.76-18.13A79,79,0,0,0,417.24,77.38Z"/><path class="cls-7" d="M217.85,159.25l-15.78-10.16c-14.18-6.28-32.46-8.89-42.35-5.95a24.2,24.2,0,0,0-3.47,1.35c10.82-.38,25.1,2.46,36.8,7.64l17,10.93c16.62,13.85,20.57,27.44,18.56,39.39a143.62,143.62,0,0,1-4.51,16.15l.15.15c5.08,4.53,10.88-22.87,10.88-22.87C237,184.77,233.3,172.13,217.85,159.25Z"/><circle class="cls-1" cx="470.27" cy="86.12" r="6.77" transform="translate(-3.33 20.72) rotate(-2.52)"/><circle class="cls-8" cx="470.27" cy="86.12" r="3.69" transform="translate(-3.33 20.72) rotate(-2.52)"/><circle class="cls-9" cx="473.65" cy="84.97" r="1.47" transform="translate(-3.27 20.87) rotate(-2.52)"/><path class="cls-10" d="M35.4,166.86c0,.24-42.75,14.41-34.29,24.5,5.24,4.3,7.92.34,16.68-10.49A50.7,50.7,0,0,1,35.4,166.86Z"/><path class="cls-10" d="M99.07,134.09c0,.24-44.92,4.15-39,15.92,4.11,5.39,7.62,2.16,18.65-6.35A50.7,50.7,0,0,1,99.07,134.09Z"/><path class="cls-10" d="M132.07,146.88c0,.24-43.83,10.7-36.26,21.48,4.86,4.73,7.86,1,17.51-9A50.7,50.7,0,0,1,132.07,146.88Z"/><path class="cls-10" d="M79.08,168.45c0,.24-42.54,15-33.94,25,5.3,4.22,7.92.23,16.53-10.72A50.7,50.7,0,0,1,79.08,168.45Z"/><path class="cls-10" d="M186.78,115.84c-.08.23-45.08-1.76-40.77,10.68,3.37,5.88,7.28,3.14,19.32-3.86A50.7,50.7,0,0,1,186.78,115.84Z"/><path class="cls-10" d="M90.07,193.89c0,.24-39.84,21.16-29.86,29.75,5.87,3.39,7.87-1,14.75-13.06A50.7,50.7,0,0,1,90.07,193.89Z"/></g></g></svg>