<svg xmlns="http://www.w3.org/2000/svg" viewBox="0 0 105.29 197.17"><defs><style>.cls-1,.cls-3{fill:none;stroke-linecap:round;stroke-miterlimit:10;stroke-width:6.49px;}.cls-1{stroke:#710e82;}.cls-2,.cls-7{opacity:0.4;}.cls-3{stroke:#f96d11;}.cls-4{fill:#710e82;}.cls-5{fill:#fff;}.cls-6{fill:#a53860;}.cls-7{fill:#f96d11;}.cls-8{fill:#450c20;}</style></defs><title>Asset 26</title><g id="Layer_2" data-name="Layer 2"><g id="Layer_1-2" data-name="Layer 1"><path class="cls-1" d="M26.3,73.77s6.65,25.67,3.64,43.29S9.37,152.62,5.82,163.83s-2,30.09-2,30.09"/><path class="cls-1" d="M32.88,71.66S43,109.33,40.5,127.92s-6.91,40.25,1,56.23"/><path class="cls-1" d="M39.46,67.91S56.14,117.26,52.05,136s10,44.53,14.82,48.79"/><path class="cls-1" d="M47.41,65.75c1.4-3.21,6.67,29.63.38,54.2s-33.12,43.87-37.05,50.11"/><path class="cls-1" d="M54.3,63.3s12.23,22,12.62,54.18,12.29,37.91,17,48.17.66,13.31.66,13.31"/><path class="cls-1" d="M65.05,60.8s28.17,19.4,34.49,44.86-1.13,33.15-2.44,41.15,2.42,19.05,2.42,19.05"/><path class="cls-1" d="M54.81,62.3S80.2,78,86.45,95.44s-6.1,34.08-7.6,44.09,3.94,19.85,3.94,19.85"/><path class="cls-1" d="M19,72.51s3.71,32.36,5.73,41.91,15.68,43.28,21.36,50.8S55,179.85,56,183.31"/><g class="cls-2"><path class="cls-3" d="M26.08,73.4s6.65,25.67,3.64,43.29S9.14,152.25,5.6,163.46s-2,30.09-2,30.09"/><path class="cls-3" d="M32.66,71.29S42.75,109,40.28,127.55s-6.91,40.25,1,56.23"/><path class="cls-3" d="M39.24,67.54s16.68,49.34,12.59,68.11,10,44.53,14.82,48.79"/><path class="cls-3" d="M47.19,65.38c1.4-3.21,6.67,29.63.38,54.2s-33.12,43.87-37.05,50.11"/><path class="cls-3" d="M54.08,62.93s12.23,22,12.62,54.18S79,155,83.67,165.28s.66,13.31.66,13.31"/><path class="cls-3" d="M64.83,60.43S93,79.84,99.31,105.29s-1.13,33.15-2.44,41.15,2.42,19.05,2.42,19.05"/><path class="cls-3" d="M54.59,61.93S80,77.59,86.23,95.07s-6.1,34.08-7.6,44.09S82.57,159,82.57,159"/><path class="cls-3" d="M18.79,72.14s3.71,32.36,5.73,41.91,15.68,43.28,21.36,50.8,8.87,14.63,9.87,18.09"/></g><path class="cls-4" d="M72.36,62.93,62.89,22.26A28.78,28.78,0,1,0,6.83,35.32L16.3,76Z"/><circle class="cls-5" cx="34.86" cy="28.79" r="16.98" transform="translate(-5.62 8.65) rotate(-13.11)"/><circle class="cls-6" cx="34.86" cy="28.79" r="10.52" transform="translate(-5.62 8.65) rotate(-13.11)"/><path class="cls-7" d="M63.33,24.15l9,38.78L16.3,76,14,66.17q1.71-.3,3.43-.7A63.85,63.85,0,0,0,63.33,24.15Z"/><circle class="cls-8" cx="34.86" cy="28.79" r="4.53" transform="translate(-5.62 8.65) rotate(-13.11)"/><circle class="cls-5" cx="41.04" cy="20.9" r="4.24" transform="translate(-3.67 9.85) rotate(-13.11)"/></g></g></svg>