<svg xmlns="http://www.w3.org/2000/svg" viewBox="0 0 169.49 177.57"><defs><style>.cls-1{fill:#230946;}.cls-2{fill:#ee2184;}.cls-3{fill:#3b0c6c;}.cls-4{fill:#150a5e;opacity:0.4;}.cls-5{fill:#fcfcfc;}.cls-6{fill:#530e82;}</style></defs><title>Asset 24</title><g id="Layer_2" data-name="Layer 2"><g id="Layer_1-2" data-name="Layer 1"><path class="cls-1" d="M51.71,66.24s4.56-52,63.73-64.6S93,51.53,88.94,90.21,51.71,66.24,51.71,66.24Z"/><path class="cls-1" d="M64.59,150.74s32,41,88.23,20.64S107,141.48,82.67,111.3,64.59,150.74,64.59,150.74Z"/><path class="cls-2" d="M143.38,116.51l-29.5,44.15a38.1,38.1,0,0,1-52.81,10.5l-8.83-5.9-35.32-23.6A38.1,38.1,0,0,1,6.42,88.83L31,52.1l5-7.42a38,38,0,0,1,52.81-10.5l44.15,29.5A38.1,38.1,0,0,1,143.38,116.51Z"/><path class="cls-3" d="M92.83,97.5a121.34,121.34,0,0,1-11.46,80.07,37.73,37.73,0,0,1-20.3-6.4l-8.83-5.9-35.32-23.6A38.1,38.1,0,0,1,6.42,88.83L31,52.1l5-7.42A38,38,0,0,1,54.24,30.16,121.22,121.22,0,0,1,92.83,97.5Z"/><path class="cls-2" d="M57.33,104.56a109.61,109.61,0,0,1-5.08,60.71l-35.32-23.6A38.1,38.1,0,0,1,6.42,88.83L31,52.1A109.54,109.54,0,0,1,57.33,104.56Z"/><path class="cls-4" d="M.73,117.41a38,38,0,0,0,16.19,24.25l35.32,23.6,8.83,5.9a38.1,38.1,0,0,0,52.81-10.5l29.5-44.15a38,38,0,0,0,5.68-28.6Z"/><circle class="cls-5" cx="31.55" cy="108.28" r="15.1" transform="translate(-20.51 8.23) rotate(-11.25)"/><circle class="cls-6" cx="31.55" cy="108.28" r="9.26" transform="translate(-20.51 8.23) rotate(-11.25)"/><circle class="cls-1" cx="31.55" cy="108.28" r="4.92" transform="translate(-20.51 8.23) rotate(-11.25)"/><circle class="cls-5" cx="34.87" cy="102.6" r="4.37" transform="translate(-19.34 8.77) rotate(-11.25)"/></g></g></svg>