<svg xmlns="http://www.w3.org/2000/svg" xmlns:xlink="http://www.w3.org/1999/xlink" viewBox="0 0 490.12 318.96"><defs><style>.cls-1{fill:url(#linear-gradient);}.cls-2{fill:url(#Fading_Sky);}.cls-3{fill:url(#Fading_Sky-2);}.cls-4{fill:url(#Fading_Sky-3);}.cls-5{fill:#508ec1;}.cls-6{fill:#fff;}.cls-7{fill:#1d283c;}</style><linearGradient id="linear-gradient" x1="4494.52" y1="178.77" x2="4374.17" y2="-29.68" gradientTransform="matrix(-0.98, 0.04, 0.02, 0.99, 4563.67, -93.69)" gradientUnits="userSpaceOnUse"><stop offset="0" stop-color="#230946"/><stop offset="0.38" stop-color="#3b0c6c"/><stop offset="1" stop-color="#530e82"/></linearGradient><linearGradient id="Fading_Sky" x1="4274.32" y1="210.7" x2="4210.76" y2="100.6" gradientTransform="matrix(-0.98, 0.04, 0.02, 0.99, 4563.67, -93.69)" gradientUnits="userSpaceOnUse"><stop offset="0" stop-color="#386cb0"/><stop offset="1" stop-color="#386caf" stop-opacity="0"/></linearGradient><linearGradient id="Fading_Sky-2" x1="4420.31" y1="232.33" x2="4321.75" y2="175.43" xlink:href="#Fading_Sky"/><linearGradient id="Fading_Sky-3" x1="4370.11" y1="169.09" x2="4677.86" y2="-8.58" xlink:href="#Fading_Sky"/></defs><title>Asset 23</title><g id="Layer_2" data-name="Layer 2"><g id="Layer_1-2" data-name="Layer 1"><path class="cls-1" d="M6,86.33a49.85,49.85,0,0,0,37.59,2.92c1.32-.41,2.62-.88,3.89-1.4a70.63,70.63,0,0,1,44.47,0c3.44-1.68,1.89-8.32,10.13-34.79S168.9,7.68,169,1s18.9,22.86,8.27,39c-11.58,23.5-35.86,26.09-42.49,41.68-.27.52-.56,1-.82,1.56a54.27,54.27,0,0,0-5.74,28.08c.11,1.7.3,3.38.58,5a52.91,52.91,0,0,0,2.52,9.73,52,52,0,0,0,7.21,13.36,50,50,0,0,0,7.7,8.2v0l.84.68-.34-.08.07.34.74.18c2.55,2,21.17,14.74,28.48,18.42a110.22,110.22,0,0,0,28.28,9.72,107.1,107.1,0,0,0,11,1.62,141.45,141.45,0,0,0,77.46-11.81q3.44-1.57,6.81-3.33C310,157.06,351,145,367.15,146.24c23.71,1,48.06,3.06,70.68,14.44a137.62,137.62,0,0,1,52.29,46q-3.5,4.59-7.26,8.9a176.31,176.31,0,0,1-107.64,59A169.69,169.69,0,0,1,352,276.25c-24,38.62-72.89,53.81-113.28,34A108.76,108.76,0,0,1,289.08,270a183.83,183.83,0,0,1-55-9q-8.27-2.68-16.39-6.2-4.84-2.09-9.62-4.5a185.87,185.87,0,0,1-17.18-9.82,183.81,183.81,0,0,1-43.14-38.65q-2.6-3.19-5-6.49c-2.74-3.69-5.34-7.48-7.78-11.35q-3.1-4.89-5.89-10a139.52,139.52,0,0,1-12.85-19.7s0,0,0,0q-.78-1.62-1.67-3.19A54.48,54.48,0,0,0,54.34,125a50.75,50.75,0,0,1-40.1-14.77c-.41-.41-.82-.83-1.21-1.26A52.12,52.12,0,0,1,0,82.74,49,49,0,0,0,6,86.33Z"/><path class="cls-2" d="M489.79,207.21l0,0q-3.5,4.59-7.26,8.9a176.31,176.31,0,0,1-107.64,59,169.69,169.69,0,0,1-23.19,1.72l-.24.38.1-.21C378.28,224,435.6,196.79,489.79,207.21Z"/><path class="cls-3" d="M246.95,299.84a109.68,109.68,0,0,0-8,10.43c39.83,19.5,87.89,5,112.27-32.44C325.29,307.31,282.8,317.34,246.95,299.84Z"/><path class="cls-4" d="M0,82.75a52.12,52.12,0,0,0,13,26.2c.39.43.8.85,1.21,1.26A50.75,50.75,0,0,0,54.34,125a54.35,54.35,0,0,1,60.17,26.16q.89,1.57,1.67,3.19s0,0,0,0A139.52,139.52,0,0,0,129.05,174q2.78,5.06,5.89,10c2.45,3.87,5,7.66,7.78,11.35q2.44,3.29,5,6.49a183.8,183.8,0,0,0,43.14,38.65,185.85,185.85,0,0,0,17.18,9.82q4.77,2.4,9.62,4.5,8.11,3.53,16.39,6.2a182.71,182.71,0,0,0,41.78,8.38l1.13.09a5.7,5.7,0,0,0,.58,0q5.75.45,11.51.49L297,259.53a183.82,183.82,0,0,1-55-9q-8.27-2.68-16.39-6.2-4.84-2.09-9.62-4.5A185.85,185.85,0,0,1,198.85,230a183.81,183.81,0,0,1-43.14-38.65q-2.6-3.19-5-6.49c-2.74-3.69-5.34-7.48-7.78-11.35q-3.1-4.89-5.89-10a139.52,139.52,0,0,1-12.85-19.7s0,0,0,0q-.78-1.62-1.67-3.19a54.48,54.48,0,0,0-60.17-26.16,50.75,50.75,0,0,1-40.1-14.77c-.41-.41-.82-.83-1.21-1.26a50.74,50.74,0,0,1-6.58-8.83A49.57,49.57,0,0,1,6,86.33,49,49,0,0,1,0,82.75Z"/><path class="cls-5" d="M275.87,269.38h0l1.13.08Z"/><ellipse class="cls-6" cx="438.16" cy="207.43" rx="9.04" ry="8.78" transform="translate(55.93 505.62) rotate(-63.29)"/><ellipse class="cls-7" cx="438.16" cy="207.43" rx="6.39" ry="6.21" transform="translate(55.93 505.62) rotate(-63.29)"/><ellipse class="cls-5" cx="438.16" cy="207.43" rx="3.51" ry="3.41" transform="translate(55.93 505.62) rotate(-63.29)"/><ellipse class="cls-6" cx="436.34" cy="204.76" rx="1.89" ry="1.84" transform="translate(57.33 502.53) rotate(-63.29)"/></g></g></svg>