<svg xmlns="http://www.w3.org/2000/svg" viewBox="0 0 235.26 428.64"><defs><style>.cls-1,.cls-3{fill:none;stroke-linecap:round;stroke-miterlimit:10;stroke-width:12.39px;}.cls-1{stroke:#f8a31c;}.cls-2,.cls-7{opacity:0.4;}.cls-3{stroke:#f96d11;}.cls-4{fill:#f8a31c;}.cls-5{fill:#fff;}.cls-6{fill:#530e82;}.cls-7{fill:#f96d11;}.cls-8{fill:#230946;}</style></defs><title>Asset 25</title><g id="Layer_2" data-name="Layer 2"><g id="Layer_1-2" data-name="Layer 1"><path class="cls-1" d="M171.75,160.79s-13.29,56.33-5.57,94.7,47.8,76.85,56.33,101.2,6.27,65.65,6.27,65.65"/><path class="cls-1" d="M157,156.45s-20.25,82.68-13.68,123.19,17.71,87.65,1.1,122.86"/><path class="cls-1" d="M142.15,148.53S107.93,257,118.13,297.8,98.52,395.47,88,405"/><path class="cls-1" d="M124.35,144.13c-3.31-7-13.1,65,2.3,118.4s76.18,94.5,85.3,108"/><path class="cls-1" d="M108.89,139.06S83,187.52,84,257.91,58.88,341.21,49,363.8s-.7,29.09-.7,29.09"/><path class="cls-1" d="M84.84,134s-61.51,43.51-74.06,99.36,4.44,72.36,7.82,89.78-4.26,41.72-4.26,41.72"/><path class="cls-1" d="M107.7,136.88s-55.53,35.23-68.42,73.65,15.55,74.19,19.47,96S51.14,350,51.14,350"/><path class="cls-1" d="M187.88,157.76s-6.36,70.84-10.29,91.77-32.35,95.15-44.53,111.82-18.87,32.3-20.89,39.9"/><g class="cls-2"><path class="cls-3" d="M171.73,160.9s-13.29,56.33-5.57,94.7,47.8,76.85,56.33,101.2,6.27,65.65,6.27,65.65"/><path class="cls-3" d="M157,156.56s-20.25,82.68-13.68,123.19S161,367.4,144.41,402.6"/><path class="cls-3" d="M142.13,148.65s-34.22,108.44-24,149.27S98.5,395.58,88,405.08"/><path class="cls-3" d="M124.32,144.24c-3.31-7-13.1,65,2.3,118.4s76.18,94.5,85.3,108"/><path class="cls-3" d="M108.87,139.17S83,187.63,84,258s-25.12,83.3-35,105.88-.7,29.09-.7,29.09"/><path class="cls-3" d="M84.81,134.14S23.3,177.65,10.75,233.5s4.44,72.36,7.82,89.78S14.31,365,14.31,365"/><path class="cls-3" d="M107.67,137s-55.53,35.23-68.42,73.65,15.55,74.19,19.47,96-7.61,43.51-7.61,43.51"/><path class="cls-3" d="M187.86,157.87s-6.36,70.84-10.29,91.77S145.22,344.8,133,361.46s-18.87,32.3-20.89,39.9"/></g><path class="cls-4" d="M68.71,139,87.4,49.76c7.11-34,41-55.61,75.59-48.36S219.92,42.06,212.81,76l-18.69,89.21Z"/><ellipse class="cls-5" cx="150.11" cy="62.89" rx="37.07" ry="37.8" transform="translate(57.78 196.91) rotate(-78.17)"/><ellipse class="cls-6" cx="150.11" cy="62.89" rx="22.97" ry="23.42" transform="translate(57.78 196.91) rotate(-78.17)"/><path class="cls-7" d="M86.53,53.9,68.71,139l125.41,26.27,4.51-21.54q-3.82-.59-7.66-1.39A142.79,142.79,0,0,1,86.53,53.9Z"/><ellipse class="cls-8" cx="150.11" cy="62.89" rx="9.9" ry="10.09" transform="translate(57.78 196.91) rotate(-78.17)"/><ellipse class="cls-5" cx="135.91" cy="45.91" rx="9.25" ry="9.44" transform="translate(63.11 169.52) rotate(-78.17)"/></g></g></svg>